<?xml version="1.0" encoding="utf-8"?>
<!-- Generator: Adobe Illustrator 15.0.0, SVG Export Plug-In  -->
<!DOCTYPE svg PUBLIC "-//W3C//DTD SVG 1.1//EN" "http://www.w3.org/Graphics/SVG/1.1/DTD/svg11.dtd" [
	<!ENTITY ns_flows "http://ns.adobe.com/Flows/1.0/">
]>
<svg version="1.1"
	 xmlns="http://www.w3.org/2000/svg" xmlns:xlink="http://www.w3.org/1999/xlink" xmlns:a="http://ns.adobe.com/AdobeSVGViewerExtensions/3.0/"
	 x="0px" y="0px" width="576px" height="270px" viewBox="-31.32 -22.857 576 270"
	 overflow="visible" enable-background="new -31.32 -22.857 576 270" xml:space="preserve">
<defs>
</defs>
<text transform="matrix(1 0 0 1 149.3472 212.1436)"><tspan x="0" y="0" fill="#574A2A" font-family="'Ubuntu'" font-size="22" letter-spacing="-3">/</tspan><tspan x="5.148" y="0" fill="#574A2A" font-family="'Ubuntu'" font-size="22">/ Dig in to Regular Expressions</tspan></text>
<path d="M6.65,185.427H0l23.73-67.76h6.51L6.65,185.427z"/>
<path d="M61.109,152.177c0.746,0.934,1.691,2.159,2.835,3.675c1.143,1.517,2.321,3.197,3.535,5.04
	c1.213,1.844,2.416,3.769,3.605,5.775s2.205,3.943,3.045,5.81h-7.42c-0.934-1.773-1.949-3.57-3.045-5.39
	c-1.097-1.82-2.205-3.559-3.325-5.216c-1.12-1.655-2.229-3.208-3.325-4.654c-1.097-1.446-2.089-2.706-2.975-3.78
	c-0.607,0.047-1.225,0.07-1.855,0.07c-0.63,0-1.272,0-1.925,0h-6.09v18.97h-6.79v-47.81c1.913-0.466,4.048-0.781,6.405-0.945
	c2.356-0.163,4.515-0.245,6.475-0.245c6.813,0,12.005,1.284,15.575,3.85c3.57,2.567,5.355,6.394,5.355,11.48
	c0,3.22-0.853,5.974-2.556,8.26C66.93,149.354,64.422,151.057,61.109,152.177z M50.819,129.427c-2.894,0-5.11,0.07-6.65,0.21v18.27
	H49c2.333,0,4.433-0.116,6.3-0.35c1.866-0.233,3.441-0.676,4.725-1.33c1.283-0.653,2.275-1.575,2.975-2.765
	c0.7-1.19,1.05-2.765,1.05-4.725c0-1.82-0.35-3.336-1.05-4.55c-0.7-1.213-1.645-2.17-2.835-2.87c-1.19-0.7-2.59-1.19-4.2-1.47
	C54.354,129.566,52.639,129.427,50.819,129.427z"/>
<path d="M77.559,154.347c0-3.22,0.466-6.031,1.399-8.435c0.934-2.403,2.17-4.398,3.71-5.985c1.54-1.586,3.313-2.776,5.32-3.57
	c2.006-0.793,4.06-1.19,6.16-1.19c4.899,0,8.656,1.529,11.27,4.585c2.613,3.057,3.92,7.712,3.92,13.965c0,0.28,0,0.642,0,1.085
	c0,0.444-0.023,0.852-0.069,1.225h-24.92c0.279,3.78,1.376,6.65,3.29,8.61c1.912,1.96,4.899,2.939,8.96,2.939
	c2.285,0,4.211-0.197,5.774-0.595c1.563-0.396,2.741-0.781,3.535-1.155l0.91,5.46c-0.794,0.421-2.182,0.864-4.165,1.33
	c-1.984,0.466-4.235,0.7-6.755,0.7c-3.174,0-5.915-0.479-8.226-1.435c-2.31-0.956-4.212-2.275-5.704-3.955
	c-1.494-1.681-2.603-3.675-3.325-5.985C77.919,159.631,77.559,157.101,77.559,154.347z M102.548,150.776
	c0.046-2.94-0.688-5.355-2.204-7.245c-1.518-1.89-3.605-2.835-6.266-2.835c-1.494,0-2.812,0.292-3.955,0.875
	c-1.144,0.584-2.111,1.342-2.904,2.275c-0.795,0.934-1.412,2.007-1.855,3.22c-0.444,1.214-0.735,2.45-0.875,3.71H102.548z"/>
<path d="M140.138,168.837c-0.56,0.374-1.645,0.852-3.255,1.435c-1.61,0.584-3.489,0.875-5.635,0.875c-2.194,0-4.26-0.35-6.195-1.05
	c-1.937-0.7-3.629-1.785-5.075-3.255c-1.447-1.471-2.59-3.301-3.43-5.495c-0.84-2.193-1.26-4.806-1.26-7.84
	c0-2.66,0.396-5.098,1.189-7.315c0.793-2.216,1.948-4.13,3.465-5.74s3.371-2.87,5.565-3.78c2.193-0.91,4.666-1.365,7.42-1.365
	c3.033,0,5.681,0.222,7.945,0.665c2.263,0.444,4.165,0.852,5.705,1.225v32.48c0,5.6-1.447,9.66-4.341,12.18
	c-2.894,2.521-7.279,3.78-13.159,3.78c-2.287,0-4.445-0.188-6.476-0.561c-2.029-0.374-3.792-0.816-5.285-1.33l1.19-5.67
	c1.306,0.514,2.905,0.969,4.795,1.365s3.861,0.595,5.915,0.595c3.873,0,6.661-0.77,8.365-2.31c1.703-1.54,2.555-3.99,2.555-7.35
	V168.837z M140.068,141.816c-0.653-0.186-1.528-0.361-2.625-0.525c-1.097-0.163-2.579-0.245-4.444-0.245
	c-3.5,0-6.195,1.144-8.085,3.43c-1.891,2.287-2.835,5.32-2.835,9.1c0,2.1,0.268,3.897,0.805,5.39c0.536,1.494,1.26,2.729,2.17,3.71
	c0.91,0.979,1.96,1.704,3.15,2.17c1.189,0.467,2.415,0.7,3.675,0.7c1.726,0,3.312-0.245,4.76-0.735
	c1.446-0.49,2.59-1.061,3.43-1.715V141.816z"/>
<path d="M156.797,172.477v-48.51h29.61v5.81h-22.82v14.42h20.301v5.67h-20.301v16.8h24.57v5.81H156.797z"/>
<path d="M217.347,172.477c-0.515-1.026-1.145-2.17-1.89-3.43c-0.747-1.261-1.564-2.556-2.45-3.886
	c-0.888-1.329-1.797-2.647-2.73-3.954s-1.844-2.543-2.729-3.71c-0.888,1.167-1.797,2.415-2.73,3.745
	c-0.934,1.33-1.832,2.66-2.695,3.99s-1.669,2.625-2.414,3.885c-0.747,1.261-1.378,2.38-1.891,3.36h-6.72
	c1.633-3.173,3.581-6.405,5.845-9.695c2.263-3.29,4.516-6.428,6.755-9.415l-6.04-8.29l3.351-5l6.68,8.74l8.75-12.74h6.93
	l-11.76,16.87c2.24,3.034,4.538,6.242,6.896,9.625c2.355,3.385,4.351,6.686,5.984,9.905H217.347z"/>
<path d="M234.606,149.537c0,5.121,0.74,9.86,2.221,14.22c1.479,4.359,3.659,8.399,6.539,12.12l-3.96,2.699
	c-3.119-3.8-5.63-8.17-7.529-13.109c-1.9-4.939-2.851-10.25-2.851-15.93c0-5.679,0.95-10.989,2.851-15.93
	c1.899-4.939,4.41-9.309,7.529-13.11l3.96,2.7c-2.88,3.72-5.061,7.76-6.539,12.12C235.346,139.677,234.606,144.417,234.606,149.537z
	"/>
<path d="M264.005,173.316c-2.939,0-5.519-0.467-7.735-1.399c-2.217-0.934-4.084-2.24-5.6-3.921c-1.517-1.68-2.649-3.675-3.395-5.984
	c-0.747-2.31-1.12-4.865-1.12-7.665c0-2.8,0.407-5.366,1.225-7.7c0.816-2.333,1.971-4.351,3.465-6.055
	c1.493-1.703,3.325-3.033,5.495-3.99c2.17-0.956,4.585-1.435,7.245-1.435c1.633,0,3.266,0.14,4.9,0.42
	c1.633,0.28,3.195,0.724,4.689,1.33l-1.47,5.53c-0.98-0.466-2.112-0.84-3.396-1.12c-1.283-0.28-2.648-0.42-4.095-0.42
	c-3.64,0-6.429,1.144-8.365,3.43c-1.937,2.287-2.904,5.624-2.904,10.01c0,1.96,0.221,3.757,0.665,5.39
	c0.442,1.635,1.143,3.034,2.1,4.2c0.956,1.167,2.181,2.065,3.675,2.695c1.493,0.63,3.313,0.944,5.46,0.944
	c1.727,0,3.29-0.162,4.69-0.489c1.399-0.326,2.496-0.677,3.29-1.051l0.91,5.46c-0.374,0.234-0.91,0.455-1.61,0.665
	s-1.494,0.396-2.38,0.561c-0.887,0.163-1.832,0.303-2.835,0.42C265.907,173.258,264.938,173.316,264.005,173.316z"/>
<path d="M291.095,135.167c2.612,0,4.817,0.339,6.614,1.015c1.796,0.677,3.243,1.634,4.341,2.87c1.096,1.237,1.878,2.707,2.345,4.41
	c0.466,1.704,0.7,3.582,0.7,5.635v22.75c-0.561,0.094-1.343,0.222-2.346,0.385c-1.004,0.164-2.135,0.315-3.395,0.455
	s-2.625,0.268-4.095,0.385c-1.471,0.116-2.93,0.175-4.375,0.175c-2.055,0-3.944-0.21-5.67-0.63c-1.728-0.42-3.221-1.085-4.48-1.995
	c-1.26-0.909-2.24-2.11-2.94-3.604c-0.699-1.493-1.05-3.29-1.05-5.39c0-2.006,0.408-3.733,1.226-5.18
	c0.815-1.446,1.925-2.613,3.324-3.5c1.4-0.886,3.033-1.54,4.9-1.96c1.866-0.42,3.826-0.63,5.88-0.63c0.653,0,1.33,0.035,2.03,0.105
	c0.7,0.07,1.365,0.164,1.995,0.28c0.63,0.117,1.178,0.222,1.645,0.315c0.466,0.094,0.793,0.164,0.98,0.21v-1.82
	c0-1.073-0.117-2.135-0.351-3.185c-0.233-1.05-0.653-1.983-1.26-2.8c-0.606-0.816-1.435-1.47-2.485-1.96
	c-1.05-0.49-2.414-0.735-4.095-0.735c-2.146,0-4.024,0.152-5.635,0.455c-1.61,0.304-2.812,0.619-3.605,0.945l-0.77-5.39
	c0.84-0.373,2.24-0.735,4.2-1.085C286.685,135.342,288.808,135.167,291.095,135.167z M291.655,167.786
	c1.54,0,2.905-0.034,4.095-0.104c1.19-0.07,2.182-0.198,2.976-0.385v-10.85c-0.467-0.233-1.226-0.431-2.275-0.595
	c-1.05-0.163-2.322-0.245-3.814-0.245c-0.98,0-2.02,0.07-3.115,0.21c-1.098,0.14-2.101,0.432-3.01,0.875
	c-0.91,0.444-1.67,1.05-2.275,1.82c-0.607,0.77-0.91,1.785-0.91,3.045c0,2.334,0.746,3.955,2.24,4.865
	C287.058,167.332,289.087,167.786,291.655,167.786z"/>
<path d="M341.843,136.077c-1.819,6.814-3.954,13.347-6.404,19.6c-2.45,6.254-4.819,11.854-7.105,16.8h-5.88
	c-2.287-4.946-4.655-10.546-7.104-16.8c-2.45-6.253-4.585-12.786-6.405-19.6h7c0.56,2.287,1.225,4.725,1.995,7.315
	c0.77,2.59,1.586,5.157,2.45,7.7c0.862,2.544,1.737,5.005,2.625,7.385c0.886,2.38,1.726,4.504,2.52,6.37
	c0.793-1.866,1.633-3.99,2.521-6.37c0.886-2.38,1.761-4.841,2.625-7.385c0.862-2.543,1.68-5.11,2.449-7.7
	c0.771-2.59,1.436-5.028,1.995-7.315H341.843z"/>
<path d="M358.924,135.167c2.612,0,4.817,0.339,6.614,1.015c1.796,0.677,3.243,1.634,4.341,2.87c1.096,1.237,1.878,2.707,2.345,4.41
	c0.466,1.704,0.7,3.582,0.7,5.635v22.75c-0.561,0.094-1.343,0.222-2.346,0.385c-1.004,0.164-2.135,0.315-3.395,0.455
	s-2.625,0.268-4.095,0.385c-1.471,0.116-2.93,0.175-4.375,0.175c-2.055,0-3.944-0.21-5.67-0.63c-1.728-0.42-3.221-1.085-4.48-1.995
	c-1.26-0.909-2.24-2.11-2.94-3.604c-0.699-1.493-1.05-3.29-1.05-5.39c0-2.006,0.408-3.733,1.226-5.18
	c0.815-1.446,1.925-2.613,3.324-3.5c1.4-0.886,3.033-1.54,4.9-1.96c1.866-0.42,3.826-0.63,5.88-0.63c0.653,0,1.33,0.035,2.03,0.105
	c0.7,0.07,1.365,0.164,1.995,0.28c0.63,0.117,1.178,0.222,1.645,0.315c0.466,0.094,0.793,0.164,0.98,0.21v-1.82
	c0-1.073-0.117-2.135-0.351-3.185c-0.233-1.05-0.653-1.983-1.26-2.8c-0.606-0.816-1.435-1.47-2.485-1.96
	c-1.05-0.49-2.414-0.735-4.095-0.735c-2.146,0-4.024,0.152-5.635,0.455c-1.61,0.304-2.812,0.619-3.605,0.945l-0.77-5.39
	c0.84-0.373,2.24-0.735,4.2-1.085C354.514,135.342,356.637,135.167,358.924,135.167z M359.484,167.786
	c1.54,0,2.905-0.034,4.095-0.104c1.19-0.07,2.182-0.198,2.976-0.385v-10.85c-0.467-0.233-1.226-0.431-2.275-0.595
	c-1.05-0.163-2.322-0.245-3.814-0.245c-0.98,0-2.02,0.07-3.115,0.21c-1.098,0.14-2.101,0.432-3.01,0.875
	c-0.91,0.444-1.67,1.05-2.275,1.82c-0.607,0.77-0.91,1.785-0.91,3.045c0,2.334,0.746,3.955,2.24,4.865
	C354.887,167.332,356.917,167.786,359.484,167.786z"/>
<path d="M388.393,136.077h13.79v5.46h-13.79v16.8c0,1.82,0.14,3.325,0.42,4.515c0.279,1.19,0.699,2.124,1.26,2.8
	c0.56,0.677,1.26,1.155,2.1,1.436c0.84,0.279,1.82,0.42,2.94,0.42c1.96,0,3.535-0.222,4.725-0.665
	c1.19-0.443,2.019-0.758,2.485-0.945l1.26,5.39c-0.654,0.327-1.797,0.735-3.43,1.226c-1.634,0.49-3.5,0.734-5.601,0.734
	c-2.474,0-4.515-0.314-6.125-0.944c-1.609-0.63-2.904-1.575-3.885-2.835c-0.979-1.26-1.669-2.812-2.064-4.655
	c-0.397-1.843-0.596-3.978-0.596-6.405v-32.48l6.511-1.12V136.077z"/>
<path d="M406.313,154.347c0-3.22,0.466-6.031,1.399-8.435c0.934-2.403,2.17-4.398,3.71-5.985c1.54-1.586,3.313-2.776,5.32-3.57
	c2.006-0.793,4.06-1.19,6.16-1.19c4.899,0,8.656,1.529,11.27,4.585c2.613,3.057,3.92,7.712,3.92,13.965c0,0.28,0,0.642,0,1.085
	c0,0.444-0.023,0.852-0.069,1.225h-24.92c0.279,3.78,1.376,6.65,3.29,8.61c1.912,1.96,4.899,2.939,8.96,2.939
	c2.285,0,4.211-0.197,5.774-0.595c1.563-0.396,2.741-0.781,3.535-1.155l0.91,5.46c-0.794,0.421-2.182,0.864-4.165,1.33
	c-1.984,0.466-4.235,0.7-6.755,0.7c-3.174,0-5.915-0.479-8.226-1.435c-2.31-0.956-4.212-2.275-5.704-3.955
	c-1.494-1.681-2.603-3.675-3.325-5.985C406.673,159.631,406.313,157.101,406.313,154.347z M431.302,150.776
	c0.046-2.94-0.688-5.355-2.204-7.245c-1.518-1.89-3.605-2.835-6.266-2.835c-1.494,0-2.812,0.292-3.955,0.875
	c-1.144,0.584-2.111,1.342-2.904,2.275c-0.795,0.934-1.412,2.007-1.855,3.22c-0.444,1.214-0.735,2.45-0.875,3.71H431.302z"/>
<path d="M449.652,149.537c0-5.12-0.74-9.86-2.22-14.22c-1.48-4.359-3.66-8.4-6.54-12.12l3.96-2.7c3.12,3.801,5.63,8.17,7.53,13.11
	c1.899,4.941,2.85,10.251,2.85,15.93c0,5.68-0.95,10.991-2.85,15.93c-1.9,4.939-4.41,9.31-7.53,13.109l-3.96-2.699
	c2.88-3.721,5.06-7.761,6.54-12.12C448.912,159.397,449.652,154.657,449.652,149.537z"/>
<path d="M470.891,128.307c-3.08,0-6.09,0.794-9.029,2.38l-1.82-5.04c1.586-0.84,3.371-1.516,5.354-2.03
	c1.983-0.513,4.096-0.77,6.335-0.77c2.66,0,4.842,0.362,6.546,1.085c1.702,0.724,3.067,1.645,4.095,2.765
	c1.025,1.12,1.738,2.369,2.135,3.745c0.396,1.377,0.595,2.695,0.595,3.955c0,1.587-0.304,2.999-0.909,4.235
	c-0.607,1.237-1.354,2.392-2.24,3.465c-0.888,1.074-1.867,2.1-2.94,3.08c-1.074,0.98-2.054,1.995-2.939,3.045
	c-0.888,1.05-1.635,2.194-2.24,3.43c-0.607,1.237-0.91,2.625-0.91,4.165c0,0.234,0,0.49,0,0.77c0,0.28,0.023,0.537,0.07,0.77h-5.46
	c-0.188-0.933-0.28-1.913-0.28-2.94c0-1.493,0.268-2.846,0.805-4.06c0.536-1.213,1.226-2.345,2.065-3.395
	c0.84-1.05,1.726-2.03,2.66-2.94c0.933-0.91,1.819-1.831,2.66-2.765c0.84-0.933,1.527-1.913,2.064-2.94
	c0.536-1.026,0.805-2.146,0.805-3.36c0-1.96-0.63-3.558-1.89-4.795C475.162,128.926,473.317,128.307,470.891,128.307z
	 M475.301,168.696c0,1.261-0.42,2.357-1.26,3.29c-0.84,0.934-1.984,1.4-3.43,1.4c-1.447,0-2.591-0.467-3.431-1.4
	c-0.84-0.933-1.26-2.029-1.26-3.29c0-1.26,0.42-2.355,1.26-3.29c0.84-0.933,1.983-1.399,3.431-1.399c1.445,0,2.59,0.467,3.43,1.399
	C474.881,166.341,475.301,167.437,475.301,168.696z"/>
<path d="M490.561,185.427h-6.649l23.729-67.76h6.51L490.561,185.427z"/>
<path fill="#62543F" d="M188.268,50.839l133.604,51.557c0,0,12.349-3.428,4.612-13.477L191.917,41.127c0,0-4.597,1.908-5.083,5.801
	C186.661,48.313,187.008,49.949,188.268,50.839z"/>
<path fill="#877358" d="M189.994,45.056l136.697,53.181c0,0,2.342-3.094-0.206-7.317c-0.42-0.697-138.157-47.651-135.567-46.792"/>
<polygon fill="#342F2A" points="324.687,101.237 320.19,102.461 188.612,49.974 187.509,48.31 "/>
<path fill="#A7A9AC" stroke="#000000" stroke-width="2" stroke-miterlimit="10" d="M194.875,106.635c0,0-26.002-62.667,31.332-102
	c0,0-12,15-18.666,40.333l10,3.333l-6.074,15.333l-7.926-3.333C203.542,60.302,195.672,78.492,194.875,106.635z"/>
<path fill="#D1D3D4" d="M197.215,45.969c-9.682,24.336-2.925,55.666-2.925,55.666s-22.075-55.666,29.332-94
	C223.623,7.635,209.549,14.969,197.215,45.969z"/>
</svg>
