<?xml version="1.0" encoding="utf-8"?>
<!-- Generator: Adobe Illustrator 16.0.0, SVG Export Plug-In . SVG Version: 6.00 Build 0)  -->
<!DOCTYPE svg PUBLIC "-//W3C//DTD SVG 1.1//EN" "http://www.w3.org/Graphics/SVG/1.1/DTD/svg11.dtd">
<svg version="1.1" xmlns="http://www.w3.org/2000/svg" xmlns:xlink="http://www.w3.org/1999/xlink" x="0px" y="0px" width="576px"
	 height="270px" viewBox="0 0 576 270" enable-background="new 0 0 576 270" xml:space="preserve">
<g id="Layer_1">
	<g>
		<path fill="#574A2A" d="M182.229,239.071h-2.09l7.458-21.296h2.046L182.229,239.071z"/>
		<path fill="#574A2A" d="M187.377,239.071h-2.09l7.458-21.296h2.046L187.377,239.071z"/>
		<path fill="#574A2A" d="M212.434,227.367c0,1.319-0.206,2.468-0.616,3.442c-0.411,0.976-0.99,1.782-1.738,2.42
			c-0.748,0.639-1.643,1.115-2.684,1.431c-1.042,0.315-2.186,0.473-3.432,0.473c-0.616,0-1.294-0.025-2.035-0.077
			c-0.741-0.051-1.412-0.15-2.013-0.297v-14.784c0.601-0.146,1.272-0.246,2.013-0.297c0.741-0.051,1.419-0.077,2.035-0.077
			c1.247,0,2.391,0.158,3.432,0.473c1.041,0.315,1.936,0.792,2.684,1.43s1.327,1.445,1.738,2.42
			C212.229,224.899,212.434,226.046,212.434,227.367z M204.14,233.262c2.024,0,3.534-0.517,4.532-1.551
			c0.997-1.034,1.496-2.482,1.496-4.345s-0.499-3.312-1.496-4.345c-0.998-1.034-2.508-1.552-4.532-1.552
			c-0.602,0-1.067,0.008-1.397,0.022c-0.33,0.015-0.561,0.029-0.693,0.044v11.66c0.132,0.015,0.363,0.029,0.693,0.044
			C203.073,233.255,203.539,233.262,204.14,233.262z"/>
		<path fill="#574A2A" d="M215.822,221.493c-0.367,0-0.679-0.121-0.935-0.363c-0.257-0.241-0.385-0.568-0.385-0.979
			c0-0.41,0.128-0.737,0.385-0.979c0.256-0.242,0.568-0.363,0.935-0.363s0.678,0.121,0.935,0.363
			c0.256,0.242,0.385,0.569,0.385,0.979c0,0.411-0.128,0.738-0.385,0.979C216.5,221.372,216.189,221.493,215.822,221.493z
			 M216.856,235h-2.046v-11.44h2.046V235z"/>
		<path fill="#574A2A" d="M226.888,233.857c-0.176,0.117-0.517,0.268-1.023,0.45c-0.506,0.184-1.097,0.275-1.771,0.275
			c-0.69,0-1.339-0.11-1.947-0.33c-0.609-0.22-1.141-0.561-1.595-1.023c-0.455-0.462-0.814-1.037-1.078-1.727
			s-0.396-1.511-0.396-2.464c0-0.836,0.125-1.603,0.374-2.299c0.249-0.696,0.612-1.298,1.089-1.805
			c0.477-0.506,1.06-0.901,1.749-1.188s1.466-0.429,2.332-0.429c0.953,0,1.786,0.069,2.497,0.209
			c0.711,0.14,1.309,0.268,1.793,0.385v10.208c0,1.76-0.455,3.036-1.364,3.828s-2.288,1.188-4.136,1.188
			c-0.719,0-1.397-0.059-2.035-0.176c-0.638-0.117-1.192-0.257-1.661-0.418l0.374-1.782c0.411,0.161,0.913,0.305,1.507,0.43
			c0.594,0.124,1.213,0.187,1.859,0.187c1.217,0,2.093-0.242,2.629-0.726c0.535-0.484,0.803-1.254,0.803-2.311V233.857z
			 M226.866,225.365c-0.206-0.059-0.481-0.113-0.825-0.165c-0.345-0.052-0.811-0.077-1.397-0.077c-1.1,0-1.947,0.359-2.541,1.078
			c-0.594,0.719-0.891,1.672-0.891,2.859c0,0.66,0.084,1.226,0.253,1.694c0.168,0.47,0.396,0.858,0.682,1.166
			s0.616,0.535,0.99,0.682c0.374,0.147,0.759,0.221,1.155,0.221c0.542,0,1.042-0.077,1.496-0.231s0.814-0.333,1.078-0.539V225.365z"
			/>
		<path fill="#574A2A" d="M237.206,221.493c-0.367,0-0.679-0.121-0.935-0.363c-0.257-0.241-0.385-0.568-0.385-0.979
			c0-0.41,0.128-0.737,0.385-0.979c0.256-0.242,0.568-0.363,0.935-0.363s0.678,0.121,0.935,0.363
			c0.256,0.242,0.385,0.569,0.385,0.979c0,0.411-0.128,0.738-0.385,0.979C237.884,221.372,237.572,221.493,237.206,221.493z
			 M238.24,235h-2.046v-11.44h2.046V235z"/>
		<path fill="#574A2A" d="M241.099,223.89c0.469-0.117,1.093-0.241,1.87-0.374c0.777-0.132,1.672-0.197,2.685-0.197
			c0.909,0,1.664,0.128,2.266,0.385s1.081,0.616,1.441,1.078c0.358,0.462,0.611,1.016,0.759,1.661
			c0.146,0.646,0.22,1.356,0.22,2.134V235h-2.046v-5.984c0-0.704-0.048-1.305-0.144-1.804c-0.095-0.498-0.253-0.902-0.473-1.21
			s-0.514-0.531-0.88-0.671c-0.367-0.14-0.821-0.209-1.364-0.209c-0.22,0-0.447,0.008-0.682,0.021
			c-0.235,0.016-0.459,0.033-0.671,0.056c-0.213,0.021-0.403,0.048-0.572,0.077s-0.29,0.051-0.363,0.065V235h-2.046V223.89z"/>
		<path fill="#574A2A" d="M259.402,223.56h4.334v1.717h-4.334v5.279c0,0.572,0.044,1.045,0.132,1.419s0.221,0.668,0.396,0.881
			c0.176,0.212,0.396,0.362,0.66,0.45c0.264,0.088,0.571,0.133,0.924,0.133c0.616,0,1.111-0.07,1.485-0.21
			c0.373-0.139,0.634-0.237,0.78-0.297l0.396,1.694c-0.206,0.103-0.565,0.231-1.078,0.385c-0.514,0.154-1.101,0.231-1.76,0.231
			c-0.778,0-1.419-0.1-1.926-0.297c-0.506-0.198-0.912-0.495-1.221-0.892c-0.308-0.396-0.524-0.883-0.648-1.463
			c-0.125-0.579-0.188-1.25-0.188-2.013v-10.208l2.046-0.352V223.56z"/>
		<path fill="#574A2A" d="M275.463,229.281c0,0.909-0.133,1.73-0.396,2.464s-0.635,1.364-1.111,1.892
			c-0.477,0.528-1.045,0.936-1.704,1.222c-0.66,0.285-1.379,0.429-2.156,0.429s-1.496-0.144-2.156-0.429
			c-0.66-0.286-1.229-0.693-1.705-1.222c-0.477-0.527-0.847-1.158-1.111-1.892c-0.264-0.733-0.396-1.555-0.396-2.464
			c0-0.895,0.132-1.713,0.396-2.453c0.265-0.74,0.635-1.375,1.111-1.903c0.477-0.527,1.045-0.935,1.705-1.221
			s1.379-0.429,2.156-0.429s1.496,0.143,2.156,0.429c0.659,0.286,1.228,0.693,1.704,1.221c0.477,0.528,0.848,1.163,1.111,1.903
			S275.463,228.386,275.463,229.281z M273.328,229.281c0-1.291-0.289-2.313-0.868-3.069c-0.58-0.755-1.368-1.133-2.365-1.133
			c-0.998,0-1.786,0.378-2.365,1.133c-0.579,0.756-0.869,1.778-0.869,3.069c0,1.29,0.29,2.313,0.869,3.068
			c0.579,0.756,1.367,1.134,2.365,1.134c0.997,0,1.785-0.378,2.365-1.134C273.039,231.594,273.328,230.571,273.328,229.281z"/>
		<path fill="#574A2A" d="M289.696,228.621c0.234,0.293,0.532,0.679,0.892,1.155s0.729,1.004,1.11,1.584
			c0.382,0.579,0.76,1.185,1.134,1.814c0.374,0.631,0.692,1.239,0.957,1.826h-2.332c-0.294-0.558-0.613-1.122-0.957-1.694
			c-0.345-0.571-0.693-1.118-1.045-1.639c-0.353-0.521-0.701-1.008-1.045-1.463c-0.346-0.454-0.657-0.851-0.936-1.188
			c-0.19,0.016-0.385,0.022-0.583,0.022s-0.399,0-0.604,0h-1.914V235h-2.135v-15.026c0.602-0.146,1.272-0.246,2.014-0.297
			c0.74-0.051,1.419-0.077,2.035-0.077c2.141,0,3.772,0.403,4.895,1.209c1.122,0.808,1.683,2.01,1.683,3.608
			c0,1.012-0.268,1.878-0.803,2.596C291.526,227.733,290.738,228.268,289.696,228.621z M286.463,221.47
			c-0.91,0-1.606,0.022-2.09,0.066v5.742h1.518c0.733,0,1.394-0.037,1.98-0.11c0.586-0.073,1.081-0.213,1.484-0.418
			s0.715-0.495,0.936-0.869c0.22-0.374,0.33-0.869,0.33-1.484c0-0.572-0.11-1.049-0.33-1.431c-0.221-0.381-0.518-0.682-0.892-0.901
			c-0.374-0.221-0.813-0.374-1.319-0.463C287.573,221.514,287.035,221.47,286.463,221.47z"/>
		<path fill="#574A2A" d="M294.646,229.302c0-1.012,0.146-1.896,0.439-2.65c0.294-0.756,0.683-1.383,1.166-1.882
			c0.484-0.498,1.042-0.872,1.673-1.121c0.63-0.25,1.275-0.374,1.936-0.374c1.54,0,2.721,0.48,3.542,1.44
			c0.821,0.961,1.232,2.424,1.232,4.389c0,0.089,0,0.202,0,0.342s-0.008,0.268-0.022,0.385h-7.832
			c0.088,1.188,0.433,2.09,1.034,2.706s1.54,0.924,2.816,0.924c0.718,0,1.323-0.062,1.814-0.187
			c0.491-0.125,0.861-0.246,1.111-0.363l0.286,1.716c-0.25,0.132-0.687,0.271-1.31,0.418s-1.331,0.22-2.123,0.22
			c-0.997,0-1.858-0.15-2.585-0.45c-0.726-0.301-1.323-0.716-1.793-1.243c-0.47-0.528-0.817-1.155-1.045-1.881
			C294.76,230.963,294.646,230.168,294.646,229.302z M302.5,228.18c0.015-0.924-0.216-1.683-0.692-2.276
			c-0.477-0.595-1.133-0.892-1.969-0.892c-0.47,0-0.884,0.092-1.243,0.275s-0.664,0.422-0.913,0.715
			c-0.25,0.294-0.444,0.631-0.583,1.012c-0.14,0.382-0.231,0.771-0.275,1.166H302.5z"/>
		<path fill="#574A2A" d="M314.094,233.857c-0.176,0.117-0.517,0.268-1.022,0.45c-0.506,0.184-1.097,0.275-1.771,0.275
			c-0.689,0-1.338-0.11-1.946-0.33c-0.609-0.22-1.141-0.561-1.596-1.023c-0.454-0.462-0.813-1.037-1.078-1.727
			c-0.264-0.689-0.396-1.511-0.396-2.464c0-0.836,0.124-1.603,0.374-2.299c0.249-0.696,0.612-1.298,1.089-1.805
			c0.477-0.506,1.06-0.901,1.749-1.188s1.467-0.429,2.332-0.429c0.953,0,1.785,0.069,2.497,0.209
			c0.711,0.14,1.309,0.268,1.793,0.385v10.208c0,1.76-0.455,3.036-1.364,3.828s-2.288,1.188-4.136,1.188
			c-0.719,0-1.397-0.059-2.035-0.176s-1.191-0.257-1.661-0.418l0.374-1.782c0.411,0.161,0.913,0.305,1.507,0.43
			c0.595,0.124,1.214,0.187,1.859,0.187c1.217,0,2.094-0.242,2.629-0.726c0.535-0.484,0.803-1.254,0.803-2.311V233.857z
			 M314.072,225.365c-0.206-0.059-0.48-0.113-0.825-0.165s-0.811-0.077-1.396-0.077c-1.101,0-1.947,0.359-2.541,1.078
			c-0.595,0.719-0.892,1.672-0.892,2.859c0,0.66,0.084,1.226,0.253,1.694c0.169,0.47,0.396,0.858,0.683,1.166
			c0.285,0.308,0.615,0.535,0.989,0.682c0.374,0.147,0.76,0.221,1.155,0.221c0.543,0,1.041-0.077,1.496-0.231
			c0.454-0.154,0.814-0.333,1.078-0.539V225.365z"/>
		<path fill="#574A2A" d="M328.086,234.67c-0.47,0.117-1.089,0.242-1.859,0.374c-0.77,0.132-1.661,0.198-2.673,0.198
			c-0.88,0-1.621-0.129-2.222-0.385c-0.602-0.257-1.086-0.62-1.452-1.09c-0.367-0.469-0.631-1.022-0.792-1.66
			c-0.162-0.639-0.242-1.346-0.242-2.123v-6.425h2.046v5.984c0,1.394,0.22,2.391,0.66,2.992s1.181,0.902,2.222,0.902
			c0.221,0,0.447-0.008,0.683-0.022c0.234-0.015,0.454-0.033,0.66-0.055c0.205-0.022,0.392-0.044,0.561-0.066
			c0.168-0.021,0.289-0.047,0.363-0.077v-9.658h2.046V234.67z"/>
		<path fill="#574A2A" d="M334.378,235.22c-1.262-0.029-2.156-0.3-2.685-0.813c-0.527-0.514-0.792-1.312-0.792-2.398V218.28
			l2.046-0.352v13.75c0,0.338,0.029,0.616,0.088,0.836c0.059,0.221,0.154,0.396,0.286,0.528s0.309,0.231,0.528,0.297
			c0.22,0.066,0.491,0.121,0.813,0.165L334.378,235.22z"/>
		<path fill="#574A2A" d="M339.988,223.275c0.821,0,1.515,0.106,2.079,0.318c0.564,0.213,1.02,0.514,1.364,0.902
			c0.344,0.389,0.59,0.851,0.736,1.386c0.146,0.536,0.221,1.126,0.221,1.771v7.149c-0.177,0.03-0.422,0.07-0.737,0.121
			c-0.315,0.052-0.671,0.1-1.067,0.144c-0.396,0.044-0.825,0.084-1.287,0.12c-0.462,0.037-0.92,0.056-1.375,0.056
			c-0.646,0-1.239-0.066-1.781-0.198c-0.543-0.132-1.013-0.341-1.408-0.627c-0.396-0.286-0.704-0.663-0.924-1.133
			c-0.221-0.47-0.33-1.034-0.33-1.694c0-0.63,0.128-1.173,0.385-1.628c0.257-0.454,0.604-0.821,1.045-1.1s0.953-0.484,1.54-0.616
			c0.586-0.132,1.202-0.198,1.848-0.198c0.205,0,0.418,0.011,0.639,0.033c0.22,0.021,0.429,0.052,0.627,0.088
			c0.197,0.037,0.37,0.07,0.517,0.099c0.146,0.03,0.249,0.052,0.308,0.066v-0.572c0-0.337-0.036-0.671-0.109-1.001
			s-0.206-0.623-0.396-0.88c-0.19-0.256-0.45-0.462-0.78-0.616c-0.33-0.153-0.76-0.23-1.287-0.23c-0.675,0-1.266,0.048-1.771,0.143
			c-0.506,0.096-0.884,0.194-1.133,0.297l-0.242-1.693c0.265-0.117,0.704-0.231,1.32-0.341
			C338.603,223.33,339.27,223.275,339.988,223.275z M340.164,233.527c0.484,0,0.913-0.012,1.287-0.033
			c0.374-0.022,0.686-0.062,0.935-0.121v-3.41c-0.146-0.073-0.385-0.136-0.715-0.187c-0.33-0.052-0.729-0.077-1.198-0.077
			c-0.309,0-0.635,0.021-0.979,0.065s-0.66,0.136-0.946,0.275s-0.524,0.33-0.715,0.572c-0.19,0.241-0.286,0.561-0.286,0.957
			c0,0.733,0.234,1.242,0.704,1.528S339.357,233.527,340.164,233.527z"/>
		<path fill="#574A2A" d="M351.34,223.319c0.176,0,0.377,0.011,0.604,0.032c0.228,0.022,0.451,0.052,0.671,0.089
			c0.221,0.036,0.422,0.073,0.605,0.109c0.183,0.037,0.318,0.07,0.407,0.1l-0.353,1.781c-0.161-0.059-0.429-0.128-0.803-0.209
			c-0.374-0.08-0.854-0.121-1.441-0.121c-0.381,0-0.759,0.041-1.133,0.121c-0.374,0.081-0.62,0.136-0.737,0.165V235h-2.046v-10.956
			c0.484-0.176,1.086-0.341,1.805-0.495C349.638,223.395,350.444,223.319,351.34,223.319z"/>
		<path fill="#574A2A" d="M359.5,235v-15.246h9.307v1.826h-7.172v4.532h6.38v1.781h-6.38v5.28h7.722V235H359.5z"/>
		<path fill="#574A2A" d="M378.309,235c-0.161-0.322-0.359-0.682-0.594-1.078c-0.234-0.396-0.491-0.803-0.77-1.221
			c-0.279-0.418-0.565-0.832-0.858-1.243c-0.293-0.41-0.579-0.799-0.857-1.166c-0.279,0.367-0.565,0.759-0.858,1.177
			c-0.294,0.418-0.576,0.836-0.847,1.254c-0.271,0.418-0.525,0.825-0.76,1.222c-0.234,0.396-0.433,0.748-0.594,1.056h-2.112
			c0.514-0.997,1.126-2.013,1.838-3.047c0.711-1.034,1.419-2.021,2.122-2.959l-3.783-5.435h2.31l2.729,4.005l2.75-4.005h2.178
			l-3.696,5.303c0.704,0.953,1.427,1.962,2.167,3.024c0.74,1.063,1.367,2.102,1.881,3.113H378.309z"/>
		<path fill="#574A2A" d="M392.124,229.302c0,0.866-0.113,1.665-0.341,2.398s-0.562,1.364-1.001,1.892
			c-0.44,0.528-0.979,0.939-1.617,1.232s-1.368,0.439-2.188,0.439c-0.66,0-1.243-0.088-1.749-0.264
			c-0.507-0.176-0.884-0.345-1.134-0.506v4.576h-2.046v-15.158c0.484-0.117,1.089-0.245,1.815-0.385
			c0.726-0.14,1.565-0.209,2.519-0.209c0.88,0,1.672,0.14,2.376,0.418s1.306,0.675,1.805,1.188c0.498,0.514,0.883,1.141,1.154,1.881
			C391.988,227.546,392.124,228.378,392.124,229.302z M389.99,229.302c0-1.334-0.33-2.361-0.99-3.08
			c-0.66-0.718-1.54-1.078-2.64-1.078c-0.616,0-1.097,0.022-1.441,0.066s-0.62,0.096-0.825,0.154v7.216
			c0.25,0.205,0.608,0.403,1.078,0.594c0.47,0.191,0.982,0.286,1.54,0.286c0.587,0,1.089-0.106,1.507-0.319
			c0.418-0.212,0.76-0.506,1.023-0.88s0.454-0.813,0.572-1.319C389.932,230.435,389.99,229.889,389.99,229.302z"/>
		<path fill="#574A2A" d="M398.57,223.319c0.176,0,0.377,0.011,0.604,0.032c0.228,0.022,0.451,0.052,0.671,0.089
			c0.221,0.036,0.422,0.073,0.605,0.109c0.183,0.037,0.318,0.07,0.407,0.1l-0.353,1.781c-0.161-0.059-0.429-0.128-0.803-0.209
			c-0.374-0.08-0.854-0.121-1.441-0.121c-0.381,0-0.759,0.041-1.133,0.121c-0.374,0.081-0.62,0.136-0.737,0.165V235h-2.046v-10.956
			c0.484-0.176,1.086-0.341,1.805-0.495C396.868,223.395,397.675,223.319,398.57,223.319z"/>
		<path fill="#574A2A" d="M401.54,229.302c0-1.012,0.146-1.896,0.439-2.65c0.294-0.756,0.683-1.383,1.166-1.882
			c0.484-0.498,1.042-0.872,1.673-1.121c0.63-0.25,1.275-0.374,1.936-0.374c1.54,0,2.721,0.48,3.542,1.44
			c0.821,0.961,1.232,2.424,1.232,4.389c0,0.089,0,0.202,0,0.342s-0.008,0.268-0.022,0.385h-7.832
			c0.088,1.188,0.433,2.09,1.034,2.706s1.54,0.924,2.816,0.924c0.718,0,1.323-0.062,1.814-0.187
			c0.491-0.125,0.861-0.246,1.111-0.363l0.286,1.716c-0.25,0.132-0.687,0.271-1.31,0.418s-1.331,0.22-2.123,0.22
			c-0.997,0-1.858-0.15-2.585-0.45c-0.726-0.301-1.323-0.716-1.793-1.243c-0.47-0.528-0.817-1.155-1.045-1.881
			C401.653,230.963,401.54,230.168,401.54,229.302z M409.394,228.18c0.015-0.924-0.216-1.683-0.692-2.276
			c-0.477-0.595-1.133-0.892-1.969-0.892c-0.47,0-0.884,0.092-1.243,0.275s-0.664,0.422-0.913,0.715
			c-0.25,0.294-0.444,0.631-0.583,1.012c-0.14,0.382-0.231,0.771-0.275,1.166H409.394z"/>
		<path fill="#574A2A" d="M416.478,233.527c0.836,0,1.455-0.11,1.859-0.33c0.403-0.221,0.604-0.572,0.604-1.057
			c0-0.498-0.197-0.895-0.594-1.188c-0.396-0.293-1.049-0.623-1.958-0.99c-0.44-0.176-0.861-0.355-1.265-0.539
			c-0.404-0.183-0.752-0.399-1.045-0.648c-0.294-0.25-0.528-0.551-0.704-0.902c-0.177-0.353-0.265-0.784-0.265-1.298
			c0-1.013,0.374-1.815,1.122-2.409s1.768-0.891,3.059-0.891c0.322,0,0.645,0.019,0.968,0.055c0.322,0.037,0.623,0.081,0.902,0.132
			c0.278,0.052,0.523,0.106,0.736,0.165s0.378,0.11,0.495,0.154l-0.374,1.76c-0.22-0.117-0.564-0.238-1.034-0.363
			c-0.47-0.124-1.033-0.187-1.693-0.187c-0.572,0-1.071,0.113-1.496,0.341c-0.426,0.228-0.639,0.583-0.639,1.067
			c0,0.249,0.048,0.469,0.144,0.659c0.095,0.191,0.242,0.363,0.439,0.518c0.198,0.153,0.444,0.297,0.737,0.429
			s0.646,0.271,1.056,0.418c0.543,0.206,1.027,0.407,1.452,0.605c0.426,0.197,0.788,0.429,1.089,0.692
			c0.301,0.265,0.532,0.583,0.693,0.957s0.242,0.833,0.242,1.375c0,1.057-0.393,1.855-1.177,2.398
			c-0.785,0.543-1.903,0.813-3.355,0.813c-1.012,0-1.804-0.084-2.376-0.253c-0.572-0.168-0.961-0.297-1.166-0.385l0.374-1.76
			c0.234,0.088,0.608,0.22,1.122,0.396C414.945,233.439,415.627,233.527,416.478,233.527z"/>
		<path fill="#574A2A" d="M425.629,233.527c0.836,0,1.455-0.11,1.859-0.33c0.403-0.221,0.604-0.572,0.604-1.057
			c0-0.498-0.197-0.895-0.594-1.188c-0.396-0.293-1.049-0.623-1.958-0.99c-0.44-0.176-0.861-0.355-1.265-0.539
			c-0.404-0.183-0.752-0.399-1.045-0.648c-0.294-0.25-0.528-0.551-0.704-0.902c-0.177-0.353-0.265-0.784-0.265-1.298
			c0-1.013,0.374-1.815,1.122-2.409s1.768-0.891,3.059-0.891c0.322,0,0.645,0.019,0.968,0.055c0.322,0.037,0.623,0.081,0.902,0.132
			c0.278,0.052,0.523,0.106,0.736,0.165s0.378,0.11,0.495,0.154l-0.374,1.76c-0.22-0.117-0.564-0.238-1.034-0.363
			c-0.47-0.124-1.033-0.187-1.693-0.187c-0.572,0-1.071,0.113-1.496,0.341c-0.426,0.228-0.639,0.583-0.639,1.067
			c0,0.249,0.048,0.469,0.144,0.659c0.095,0.191,0.242,0.363,0.439,0.518c0.198,0.153,0.444,0.297,0.737,0.429
			s0.646,0.271,1.056,0.418c0.543,0.206,1.027,0.407,1.452,0.605c0.426,0.197,0.788,0.429,1.089,0.692
			c0.301,0.265,0.532,0.583,0.693,0.957s0.242,0.833,0.242,1.375c0,1.057-0.393,1.855-1.177,2.398
			c-0.785,0.543-1.903,0.813-3.355,0.813c-1.012,0-1.804-0.084-2.376-0.253c-0.572-0.168-0.961-0.297-1.166-0.385l0.374-1.76
			c0.234,0.088,0.608,0.22,1.122,0.396C424.097,233.439,424.778,233.527,425.629,233.527z"/>
		<path fill="#574A2A" d="M433.131,221.493c-0.367,0-0.679-0.121-0.936-0.363c-0.257-0.241-0.385-0.568-0.385-0.979
			c0-0.41,0.128-0.737,0.385-0.979c0.257-0.242,0.568-0.363,0.936-0.363c0.366,0,0.678,0.121,0.935,0.363
			c0.257,0.242,0.385,0.569,0.385,0.979c0,0.411-0.128,0.738-0.385,0.979C433.809,221.372,433.497,221.493,433.131,221.493z
			 M434.164,235h-2.046v-11.44h2.046V235z"/>
		<path fill="#574A2A" d="M447.122,229.281c0,0.909-0.133,1.73-0.396,2.464s-0.635,1.364-1.111,1.892
			c-0.477,0.528-1.045,0.936-1.704,1.222c-0.66,0.285-1.379,0.429-2.156,0.429s-1.496-0.144-2.156-0.429
			c-0.66-0.286-1.229-0.693-1.705-1.222c-0.477-0.527-0.847-1.158-1.111-1.892c-0.264-0.733-0.396-1.555-0.396-2.464
			c0-0.895,0.132-1.713,0.396-2.453c0.265-0.74,0.635-1.375,1.111-1.903c0.477-0.527,1.045-0.935,1.705-1.221
			s1.379-0.429,2.156-0.429s1.496,0.143,2.156,0.429c0.659,0.286,1.228,0.693,1.704,1.221c0.477,0.528,0.848,1.163,1.111,1.903
			S447.122,228.386,447.122,229.281z M444.987,229.281c0-1.291-0.289-2.313-0.868-3.069c-0.58-0.755-1.368-1.133-2.365-1.133
			c-0.998,0-1.786,0.378-2.365,1.133c-0.579,0.756-0.869,1.778-0.869,3.069c0,1.29,0.29,2.313,0.869,3.068
			c0.579,0.756,1.367,1.134,2.365,1.134c0.997,0,1.785-0.378,2.365-1.134C444.698,231.594,444.987,230.571,444.987,229.281z"/>
		<path fill="#574A2A" d="M449.343,223.89c0.47-0.117,1.093-0.241,1.87-0.374c0.777-0.132,1.672-0.197,2.685-0.197
			c0.909,0,1.664,0.128,2.266,0.385s1.081,0.616,1.441,1.078c0.358,0.462,0.611,1.016,0.759,1.661
			c0.146,0.646,0.22,1.356,0.22,2.134V235h-2.046v-5.984c0-0.704-0.048-1.305-0.144-1.804c-0.095-0.498-0.253-0.902-0.473-1.21
			s-0.514-0.531-0.88-0.671c-0.367-0.14-0.821-0.209-1.364-0.209c-0.22,0-0.447,0.008-0.682,0.021
			c-0.235,0.016-0.459,0.033-0.671,0.056c-0.213,0.021-0.403,0.048-0.572,0.077s-0.29,0.051-0.363,0.065V235h-2.046V223.89z"/>
		<path fill="#574A2A" d="M463.974,233.527c0.836,0,1.455-0.11,1.859-0.33c0.403-0.221,0.604-0.572,0.604-1.057
			c0-0.498-0.197-0.895-0.594-1.188c-0.396-0.293-1.049-0.623-1.958-0.99c-0.44-0.176-0.861-0.355-1.265-0.539
			c-0.404-0.183-0.752-0.399-1.045-0.648c-0.294-0.25-0.528-0.551-0.704-0.902c-0.177-0.353-0.265-0.784-0.265-1.298
			c0-1.013,0.374-1.815,1.122-2.409s1.768-0.891,3.059-0.891c0.322,0,0.645,0.019,0.968,0.055c0.322,0.037,0.623,0.081,0.902,0.132
			c0.278,0.052,0.523,0.106,0.736,0.165s0.378,0.11,0.495,0.154l-0.374,1.76c-0.22-0.117-0.564-0.238-1.034-0.363
			c-0.47-0.124-1.033-0.187-1.693-0.187c-0.572,0-1.071,0.113-1.496,0.341c-0.426,0.228-0.639,0.583-0.639,1.067
			c0,0.249,0.048,0.469,0.144,0.659c0.095,0.191,0.242,0.363,0.439,0.518c0.198,0.153,0.444,0.297,0.737,0.429
			s0.646,0.271,1.056,0.418c0.543,0.206,1.027,0.407,1.452,0.605c0.426,0.197,0.788,0.429,1.089,0.692
			c0.301,0.265,0.532,0.583,0.693,0.957s0.242,0.833,0.242,1.375c0,1.057-0.393,1.855-1.177,2.398
			c-0.785,0.543-1.903,0.813-3.355,0.813c-1.012,0-1.804-0.084-2.376-0.253c-0.572-0.168-0.961-0.297-1.166-0.385l0.374-1.76
			c0.234,0.088,0.608,0.22,1.122,0.396C462.441,233.439,463.123,233.527,463.974,233.527z"/>
	</g>
	<g>
		<path d="M37.97,208.284h-6.65l23.73-67.76h6.51L37.97,208.284z"/>
		<path d="M92.429,175.034c0.746,0.934,1.691,2.159,2.835,3.675c1.143,1.517,2.321,3.197,3.535,5.04
			c1.213,1.844,2.416,3.769,3.605,5.775s2.205,3.943,3.045,5.81h-7.42c-0.934-1.773-1.949-3.57-3.045-5.39
			c-1.097-1.82-2.205-3.559-3.325-5.216c-1.12-1.655-2.229-3.208-3.325-4.654c-1.097-1.446-2.089-2.706-2.975-3.78
			c-0.607,0.047-1.225,0.07-1.855,0.07c-0.63,0-1.272,0-1.925,0h-6.09v18.97h-6.79v-47.81c1.913-0.466,4.048-0.781,6.405-0.945
			c2.356-0.163,4.515-0.245,6.475-0.245c6.813,0,12.005,1.284,15.575,3.85c3.57,2.567,5.355,6.394,5.355,11.48
			c0,3.22-0.853,5.974-2.556,8.26C98.25,172.21,95.742,173.914,92.429,175.034z M82.139,152.284c-2.894,0-5.11,0.07-6.65,0.21v18.27
			h4.83c2.333,0,4.433-0.116,6.3-0.35c1.866-0.233,3.441-0.676,4.725-1.33c1.283-0.653,2.275-1.575,2.975-2.765
			c0.7-1.19,1.05-2.765,1.05-4.725c0-1.82-0.35-3.336-1.05-4.55c-0.7-1.213-1.645-2.17-2.835-2.87c-1.19-0.7-2.59-1.19-4.2-1.47
			C85.674,152.423,83.959,152.284,82.139,152.284z"/>
		<path d="M108.879,177.204c0-3.22,0.466-6.031,1.399-8.435c0.934-2.403,2.17-4.398,3.71-5.985c1.54-1.586,3.313-2.776,5.32-3.57
			c2.006-0.793,4.06-1.19,6.16-1.19c4.899,0,8.656,1.529,11.27,4.585c2.613,3.057,3.92,7.712,3.92,13.965c0,0.28,0,0.642,0,1.085
			c0,0.444-0.023,0.852-0.069,1.225h-24.92c0.279,3.78,1.376,6.65,3.29,8.61c1.912,1.96,4.899,2.939,8.96,2.939
			c2.285,0,4.211-0.197,5.774-0.595c1.563-0.396,2.741-0.781,3.535-1.155l0.91,5.46c-0.794,0.421-2.182,0.864-4.165,1.33
			c-1.984,0.466-4.235,0.7-6.755,0.7c-3.174,0-5.915-0.479-8.226-1.435c-2.31-0.956-4.212-2.275-5.704-3.955
			c-1.494-1.681-2.603-3.675-3.325-5.985C109.239,182.488,108.879,179.958,108.879,177.204z M133.868,173.633
			c0.046-2.94-0.688-5.355-2.204-7.245c-1.518-1.89-3.605-2.835-6.266-2.835c-1.494,0-2.812,0.292-3.955,0.875
			c-1.144,0.584-2.111,1.342-2.904,2.275c-0.795,0.934-1.412,2.007-1.855,3.22c-0.444,1.214-0.735,2.45-0.875,3.71H133.868z"/>
		<path d="M171.458,191.694c-0.56,0.374-1.645,0.852-3.255,1.435c-1.61,0.584-3.489,0.875-5.635,0.875
			c-2.194,0-4.26-0.35-6.195-1.05c-1.937-0.7-3.629-1.785-5.075-3.255c-1.447-1.471-2.59-3.301-3.43-5.495
			c-0.84-2.193-1.26-4.806-1.26-7.84c0-2.66,0.396-5.098,1.189-7.315c0.793-2.216,1.948-4.13,3.465-5.74s3.371-2.87,5.565-3.78
			c2.193-0.91,4.666-1.365,7.42-1.365c3.033,0,5.681,0.222,7.945,0.665c2.263,0.444,4.165,0.852,5.705,1.225v32.48
			c0,5.6-1.447,9.66-4.341,12.18c-2.894,2.521-7.279,3.78-13.159,3.78c-2.287,0-4.445-0.188-6.476-0.561
			c-2.029-0.374-3.792-0.816-5.285-1.33l1.19-5.67c1.306,0.514,2.905,0.969,4.795,1.365s3.861,0.595,5.915,0.595
			c3.873,0,6.661-0.77,8.365-2.31c1.703-1.54,2.555-3.99,2.555-7.35V191.694z M171.388,164.673
			c-0.653-0.186-1.528-0.361-2.625-0.525c-1.097-0.163-2.579-0.245-4.444-0.245c-3.5,0-6.195,1.144-8.085,3.43
			c-1.891,2.287-2.835,5.32-2.835,9.1c0,2.1,0.268,3.897,0.805,5.39c0.536,1.494,1.26,2.729,2.17,3.71
			c0.91,0.979,1.96,1.704,3.15,2.17c1.189,0.467,2.415,0.7,3.675,0.7c1.726,0,3.312-0.245,4.76-0.735
			c1.446-0.49,2.59-1.061,3.43-1.715V164.673z"/>
		<path d="M188.117,195.333v-48.51h29.61v5.81h-22.82v14.42h20.301v5.67h-20.301v16.8h24.57v5.81H188.117z"/>
		<path d="M248.667,195.333c-0.515-1.026-1.145-2.17-1.89-3.43c-0.747-1.261-1.564-2.556-2.45-3.886
			c-0.888-1.329-1.797-2.647-2.73-3.954s-1.844-2.543-2.729-3.71c-0.888,1.167-1.797,2.415-2.73,3.745
			c-0.934,1.33-1.832,2.66-2.695,3.99s-1.669,2.625-2.414,3.885c-0.747,1.261-1.378,2.38-1.891,3.36h-6.72
			c1.633-3.173,3.581-6.405,5.845-9.695c2.263-3.29,4.516-6.428,6.755-9.415l-6.04-8.29l3.351-5l6.68,8.74l8.75-12.74h6.93
			l-11.76,16.87c2.24,3.034,4.538,6.242,6.896,9.625c2.355,3.385,4.351,6.686,5.984,9.905H248.667z"/>
		<path d="M265.926,172.394c0,5.121,0.74,9.86,2.221,14.22c1.479,4.359,3.659,8.399,6.539,12.12l-3.96,2.699
			c-3.119-3.8-5.63-8.17-7.529-13.109c-1.9-4.939-2.851-10.25-2.851-15.93c0-5.679,0.95-10.989,2.851-15.93
			c1.899-4.939,4.41-9.309,7.529-13.11l3.96,2.7c-2.88,3.72-5.061,7.76-6.539,12.12
			C266.666,162.534,265.926,167.274,265.926,172.394z"/>
		<path d="M295.325,196.173c-2.939,0-5.519-0.467-7.735-1.399c-2.217-0.934-4.084-2.24-5.6-3.921
			c-1.517-1.68-2.649-3.675-3.395-5.984c-0.747-2.31-1.12-4.865-1.12-7.665c0-2.8,0.407-5.366,1.225-7.7
			c0.816-2.333,1.971-4.351,3.465-6.055c1.493-1.703,3.325-3.033,5.495-3.99c2.17-0.956,4.585-1.435,7.245-1.435
			c1.633,0,3.266,0.14,4.9,0.42c1.633,0.28,3.195,0.724,4.689,1.33l-1.47,5.53c-0.98-0.466-2.112-0.84-3.396-1.12
			c-1.283-0.28-2.648-0.42-4.095-0.42c-3.64,0-6.429,1.144-8.365,3.43c-1.937,2.287-2.904,5.624-2.904,10.01
			c0,1.96,0.221,3.757,0.665,5.39c0.442,1.635,1.143,3.034,2.1,4.2c0.956,1.167,2.181,2.065,3.675,2.695
			c1.493,0.63,3.313,0.944,5.46,0.944c1.727,0,3.29-0.162,4.69-0.489c1.399-0.326,2.496-0.677,3.29-1.051l0.91,5.46
			c-0.374,0.234-0.91,0.455-1.61,0.665s-1.494,0.396-2.38,0.561c-0.887,0.163-1.832,0.303-2.835,0.42
			C297.227,196.115,296.258,196.173,295.325,196.173z"/>
		<path d="M322.415,158.023c2.612,0,4.817,0.339,6.614,1.015c1.796,0.677,3.243,1.634,4.341,2.87
			c1.096,1.237,1.878,2.707,2.345,4.41c0.466,1.704,0.7,3.582,0.7,5.635v22.75c-0.561,0.094-1.343,0.222-2.346,0.385
			c-1.004,0.164-2.135,0.315-3.395,0.455s-2.625,0.268-4.095,0.385c-1.471,0.116-2.93,0.175-4.375,0.175
			c-2.055,0-3.944-0.21-5.67-0.63c-1.728-0.42-3.221-1.085-4.48-1.995c-1.26-0.909-2.24-2.11-2.94-3.604
			c-0.699-1.493-1.05-3.29-1.05-5.39c0-2.006,0.408-3.733,1.226-5.18c0.815-1.446,1.925-2.613,3.324-3.5
			c1.4-0.886,3.033-1.54,4.9-1.96c1.866-0.42,3.826-0.63,5.88-0.63c0.653,0,1.33,0.035,2.03,0.105c0.7,0.07,1.365,0.164,1.995,0.28
			c0.63,0.117,1.178,0.222,1.645,0.315c0.466,0.094,0.793,0.164,0.98,0.21v-1.82c0-1.073-0.117-2.135-0.351-3.185
			c-0.233-1.05-0.653-1.983-1.26-2.8c-0.606-0.816-1.435-1.47-2.485-1.96c-1.05-0.49-2.414-0.735-4.095-0.735
			c-2.146,0-4.024,0.152-5.635,0.455c-1.61,0.304-2.812,0.619-3.605,0.945l-0.77-5.39c0.84-0.373,2.24-0.735,4.2-1.085
			C318.005,158.199,320.128,158.023,322.415,158.023z M322.975,190.643c1.54,0,2.905-0.034,4.095-0.104
			c1.19-0.07,2.182-0.198,2.976-0.385v-10.85c-0.467-0.233-1.226-0.431-2.275-0.595c-1.05-0.163-2.322-0.245-3.814-0.245
			c-0.98,0-2.02,0.07-3.115,0.21c-1.098,0.14-2.101,0.432-3.01,0.875c-0.91,0.444-1.67,1.05-2.275,1.82
			c-0.607,0.77-0.91,1.785-0.91,3.045c0,2.334,0.746,3.955,2.24,4.865C318.378,190.189,320.407,190.643,322.975,190.643z"/>
		<path d="M373.163,158.934c-1.819,6.814-3.954,13.347-6.404,19.6c-2.45,6.254-4.819,11.854-7.105,16.8h-5.88
			c-2.287-4.946-4.655-10.546-7.104-16.8c-2.45-6.253-4.585-12.786-6.405-19.6h7c0.56,2.287,1.225,4.725,1.995,7.315
			c0.77,2.59,1.586,5.157,2.45,7.7c0.862,2.544,1.737,5.005,2.625,7.385c0.886,2.38,1.726,4.504,2.52,6.37
			c0.793-1.866,1.633-3.99,2.521-6.37c0.886-2.38,1.761-4.841,2.625-7.385c0.862-2.543,1.68-5.11,2.449-7.7
			c0.771-2.59,1.436-5.028,1.995-7.315H373.163z"/>
		<path d="M390.244,158.023c2.612,0,4.817,0.339,6.614,1.015c1.796,0.677,3.243,1.634,4.341,2.87
			c1.096,1.237,1.878,2.707,2.345,4.41c0.466,1.704,0.7,3.582,0.7,5.635v22.75c-0.561,0.094-1.343,0.222-2.346,0.385
			c-1.004,0.164-2.135,0.315-3.395,0.455s-2.625,0.268-4.095,0.385c-1.471,0.116-2.93,0.175-4.375,0.175
			c-2.055,0-3.944-0.21-5.67-0.63c-1.728-0.42-3.221-1.085-4.48-1.995c-1.26-0.909-2.24-2.11-2.94-3.604
			c-0.699-1.493-1.05-3.29-1.05-5.39c0-2.006,0.408-3.733,1.226-5.18c0.815-1.446,1.925-2.613,3.324-3.5
			c1.4-0.886,3.033-1.54,4.9-1.96c1.866-0.42,3.826-0.63,5.88-0.63c0.653,0,1.33,0.035,2.03,0.105c0.7,0.07,1.365,0.164,1.995,0.28
			c0.63,0.117,1.178,0.222,1.645,0.315c0.466,0.094,0.793,0.164,0.98,0.21v-1.82c0-1.073-0.117-2.135-0.351-3.185
			c-0.233-1.05-0.653-1.983-1.26-2.8c-0.606-0.816-1.435-1.47-2.485-1.96c-1.05-0.49-2.414-0.735-4.095-0.735
			c-2.146,0-4.024,0.152-5.635,0.455c-1.61,0.304-2.812,0.619-3.605,0.945l-0.77-5.39c0.84-0.373,2.24-0.735,4.2-1.085
			C385.834,158.199,387.957,158.023,390.244,158.023z M390.804,190.643c1.54,0,2.905-0.034,4.095-0.104
			c1.19-0.07,2.182-0.198,2.976-0.385v-10.85c-0.467-0.233-1.226-0.431-2.275-0.595c-1.05-0.163-2.322-0.245-3.814-0.245
			c-0.98,0-2.02,0.07-3.115,0.21c-1.098,0.14-2.101,0.432-3.01,0.875c-0.91,0.444-1.67,1.05-2.275,1.82
			c-0.607,0.77-0.91,1.785-0.91,3.045c0,2.334,0.746,3.955,2.24,4.865C386.207,190.189,388.236,190.643,390.804,190.643z"/>
		<path d="M419.713,158.934h13.79v5.46h-13.79v16.8c0,1.82,0.14,3.325,0.42,4.515c0.279,1.19,0.699,2.124,1.26,2.8
			c0.56,0.677,1.26,1.155,2.1,1.436c0.84,0.279,1.82,0.42,2.94,0.42c1.96,0,3.535-0.222,4.725-0.665
			c1.19-0.443,2.019-0.758,2.485-0.945l1.26,5.39c-0.654,0.327-1.797,0.735-3.43,1.226c-1.634,0.49-3.5,0.734-5.601,0.734
			c-2.474,0-4.515-0.314-6.125-0.944c-1.609-0.63-2.904-1.575-3.885-2.835c-0.979-1.26-1.669-2.812-2.064-4.655
			c-0.397-1.843-0.596-3.978-0.596-6.405v-32.48l6.511-1.12V158.934z"/>
		<path d="M437.633,177.204c0-3.22,0.466-6.031,1.399-8.435c0.934-2.403,2.17-4.398,3.71-5.985c1.54-1.586,3.313-2.776,5.32-3.57
			c2.006-0.793,4.06-1.19,6.16-1.19c4.899,0,8.656,1.529,11.27,4.585c2.613,3.057,3.92,7.712,3.92,13.965c0,0.28,0,0.642,0,1.085
			c0,0.444-0.023,0.852-0.069,1.225h-24.92c0.279,3.78,1.376,6.65,3.29,8.61c1.912,1.96,4.899,2.939,8.96,2.939
			c2.285,0,4.211-0.197,5.774-0.595c1.563-0.396,2.741-0.781,3.535-1.155l0.91,5.46c-0.794,0.421-2.182,0.864-4.165,1.33
			c-1.984,0.466-4.235,0.7-6.755,0.7c-3.174,0-5.915-0.479-8.226-1.435c-2.31-0.956-4.212-2.275-5.704-3.955
			c-1.494-1.681-2.603-3.675-3.325-5.985C437.993,182.488,437.633,179.958,437.633,177.204z M462.622,173.633
			c0.046-2.94-0.688-5.355-2.204-7.245c-1.518-1.89-3.605-2.835-6.266-2.835c-1.494,0-2.812,0.292-3.955,0.875
			c-1.144,0.584-2.111,1.342-2.904,2.275c-0.795,0.934-1.412,2.007-1.855,3.22c-0.444,1.214-0.735,2.45-0.875,3.71H462.622z"/>
		<path d="M480.972,172.394c0-5.12-0.74-9.86-2.22-14.22c-1.48-4.359-3.66-8.4-6.54-12.12l3.96-2.7c3.12,3.801,5.63,8.17,7.53,13.11
			c1.899,4.941,2.85,10.251,2.85,15.93c0,5.68-0.95,10.991-2.85,15.93c-1.9,4.939-4.41,9.31-7.53,13.109l-3.96-2.699
			c2.88-3.721,5.06-7.761,6.54-12.12C480.231,182.254,480.972,177.514,480.972,172.394z"/>
		<path d="M502.211,151.164c-3.08,0-6.09,0.794-9.029,2.38l-1.82-5.04c1.586-0.84,3.371-1.516,5.354-2.03
			c1.983-0.513,4.096-0.77,6.335-0.77c2.66,0,4.842,0.362,6.546,1.085c1.702,0.724,3.067,1.645,4.095,2.765
			c1.025,1.12,1.738,2.369,2.135,3.745c0.396,1.377,0.595,2.695,0.595,3.955c0,1.587-0.304,2.999-0.909,4.235
			c-0.607,1.237-1.354,2.392-2.24,3.465c-0.888,1.074-1.867,2.1-2.94,3.08c-1.074,0.98-2.054,1.995-2.939,3.045
			c-0.888,1.05-1.635,2.194-2.24,3.43c-0.607,1.237-0.91,2.625-0.91,4.165c0,0.234,0,0.49,0,0.77c0,0.28,0.023,0.537,0.07,0.77
			h-5.46c-0.188-0.933-0.28-1.913-0.28-2.94c0-1.493,0.268-2.846,0.805-4.06c0.536-1.213,1.226-2.345,2.065-3.395
			c0.84-1.05,1.726-2.03,2.66-2.94c0.933-0.91,1.819-1.831,2.66-2.765c0.84-0.933,1.527-1.913,2.064-2.94
			c0.536-1.026,0.805-2.146,0.805-3.36c0-1.96-0.63-3.558-1.89-4.795C506.481,151.783,504.637,151.164,502.211,151.164z
			 M506.621,191.553c0,1.261-0.42,2.357-1.26,3.29c-0.84,0.934-1.984,1.4-3.43,1.4c-1.447,0-2.591-0.467-3.431-1.4
			c-0.84-0.933-1.26-2.029-1.26-3.29c0-1.26,0.42-2.355,1.26-3.29c0.84-0.933,1.983-1.399,3.431-1.399
			c1.445,0,2.59,0.467,3.43,1.399C506.201,189.198,506.621,190.293,506.621,191.553z"/>
		<path d="M521.881,208.284h-6.649l23.729-67.76h6.51L521.881,208.284z"/>
	</g>
</g>
<g id="Layer_3">
	<g>
		<path fill="#62543F" d="M219.588,73.696l133.604,51.557c0,0,12.349-3.428,4.612-13.477L223.237,63.984
			c0,0-4.597,1.908-5.083,5.801C217.98,71.17,218.328,72.806,219.588,73.696z"/>
		<path fill="#877358" d="M221.313,67.913l136.697,53.181c0,0,2.342-3.094-0.206-7.317c-0.42-0.697-138.157-47.651-135.567-46.792"
			/>
		<path fill="#877358" stroke="#C2B59B" stroke-width="0.5" stroke-miterlimit="10" d="M357.805,111.776"/>
		<path fill="#877358" stroke="#C2B59B" stroke-width="0.5" stroke-miterlimit="10" d="M223.237,63.984"/>
		<polygon fill="#342F2A" points="356.007,124.094 351.51,125.318 219.932,72.831 218.829,71.167 		"/>
		<path fill="#A7A9AC" stroke="#000000" stroke-width="2" stroke-miterlimit="10" d="M226.195,129.492c0,0-26.002-62.667,31.332-102
			c0,0-12,15-18.666,40.333l10,3.333l-6.074,15.333l-7.926-3.333C234.861,83.159,226.992,101.349,226.195,129.492z"/>
		<path fill="#D1D3D4" d="M228.535,68.826c-9.682,24.336-2.925,55.666-2.925,55.666s-22.075-55.666,29.332-94
			C254.942,30.492,240.869,37.826,228.535,68.826z"/>
	</g>
</g>
</svg>
