<?xml version="1.0" encoding="utf-8"?>
<!-- Generator: Adobe Illustrator 15.0.0, SVG Export Plug-In . SVG Version: 6.00 Build 0)  -->
<!DOCTYPE svg PUBLIC "-//W3C//DTD SVG 1.1//EN" "http://www.w3.org/Graphics/SVG/1.1/DTD/svg11.dtd">
<svg version="1.1" id="Layer_1" xmlns="http://www.w3.org/2000/svg" xmlns:xlink="http://www.w3.org/1999/xlink" x="0px" y="0px"
	 width="1316.706px" height="472.059px" viewBox="0 0 1316.706 472.059" enable-background="new 0 0 1316.706 472.059"
	 xml:space="preserve">
<g>
	<g>
		<path fill="#282828" d="M167.25,10C130.121,12.485,64.201,25.086,57.337,29.527C46.515,36.531,7.03,90.656,5.756,95.114
			c-1.272,4.456-1.257,39.443,2.562,49.63c3.823,10.187,10.807,21.041,11.443,26.133c0.638,5.094-11.454,68.096-12.092,72.551
			c-0.398,2.791,1.662,12.491,3.285,19.6c25.559,13.11,72.596,79.812,76.957,84.175c8.914,8.911,19.132,68.584,40.721,82.143
			c10.999,6.906,30.585,22.287,49.047,22.287c2.832,0,13.144,10.071,19.133,10.066l1143.999-0.142
			c10.822-0.636,20.178-32.761,4.873-32.761c0,0-965.57-7.729-982.761-9.004c-17.189-1.272-19.083,3.804-27.359,4.44
			c-8.277,0.638-43.919-3.806-52.195-6.353c-8.275-2.544-58.58,1.27-63.673-1.913s-15.273,1.288-19.093,0.65
			c-3.822-0.636-5.741-8.918-5.741-10.829c0-1.909-19.743-17.845-26.746-27.397c-7.003-9.549-24.836-59.197-24.836-59.197
			s0.026-6.996-0.613-10.179c-0.636-3.184-7.013-10.197-5.74-14.655c1.276-4.456-1.266-21-3.176-24.184
			c-1.908-3.183-15.915-6.377-22.921-7.652c-7.001-1.272-22.287-3.806-24.833-6.353c-2.545-2.545,1.263-6.984,1.263-11.442
			c0-4.456-8.925-14.659-14.654-18.479c-5.728-3.819-10.159-3.804-12.706-4.44c-2.546-0.636-4.478-8.916-6.39-15.918
			c-1.907-7.003,1.912-52.851,0-56.671c-1.907-3.82-6.338-7.647-5.702-12.741c0.639-5.094,5.724-8.911,10.178-14.005
			c4.458-5.094,4.454-17.84,12.092-23.57c7.641-5.73,3.805-14.613,4.441-17.795c0.639-3.183,15.934-11.461,25.482-15.919
			c9.553-4.457,47.121-3.822,56.672-1.912c9.548,1.91,15.894,3.186,23.535,1.912c7.639-1.272,12.756-12.743,22.306-14.654
			c9.551-1.911,27.361-2.538,34.363-1.264c7.005,1.274,35.025,0,42.666,0c7.64,0,10.178,1.916,17.182,3.826
			c7.004,1.909,38.826-6.366,47.104-7.002s12.751-6.389,18.48-6.389c5.846,0,977.234,18.576,982.114,19.97
			c4.455,1.273,52.194-5.703,52.194-5.703l2.588-1.437c18.007-5.403,12.061-29.762-1.309-29.126
			C1356.657,5.435,279.28,2.499,167.25,10"/>
		<path fill="#1A1A1A" d="M349.423,31.405c-0.2-0.004-0.386,0.016-0.503,0.036c-3.821,0.638-5.071,8.279-7.618,8.917
			c-2.546,0.636-40.749,9.539-45.841,8.265c-5.092-1.272-22.938-8.902-32.487-8.265c-9.55,0.636-65.586,3.826-65.586,3.826
			s-10.824,16.532-15.917,16.532s-52.175-6.993-54.722-8.266c-2.545-1.275-4.476,4.438-4.476,4.438s-31.18,4.452-34.363,5.091
			c-3.183,0.636-20.384,12.108-21.658,14.653c-1.273,2.547,3.825,14.005,3.825,14.005S49.071,104.65,49.071,108.47
			s-8.299,31.208-6.389,37.576c1.911,6.366,9.553,17.163,8.915,21.621c-0.636,4.456-5.704,44.584-7.615,48.404
			c-1.91,3.819-2.562,17.829-2.562,17.829s18.45-7.66,22.27-6.388c3.823,1.273,21.655,13.397,19.746,17.216
			c-1.91,3.822-14.637,15.902-12.093,20.358c2.547,4.458,14.638,2.538,17.182,1.263c2.547-1.272,40.116,0.657,40.752,4.476
			c0.639,3.822-2.549,17.815-1.913,22.271c0.64,4.458,12.742,14.012,12.742,17.832c0,3.821-3.172,19.079-1.263,23.534
			c1.911,4.458,25.452,47.784,27.361,50.967c1.91,3.183,22.271,12.078,22.271,18.445c0,6.366,3.836,29.273,9.566,29.273
			c5.728,0,19.74-8.916,24.833-8.916c5.094,0,56.015-3.172,59.197-1.263c3.183,1.911,35.036,14.666,41.402,13.391
			c6.366-1.272,28.654-10.215,33.749-10.215c5.094,0,36.707-1.521,39.89,1.663c3.184,3.183,929.04,10.179,934.771,10.179
			c3.348,0,12.911-2.522,20.538-4.693c0,0,0.018-8.55-10.337-7.65c0,0-961.968-4.577-979.156-5.852
			c-17.191-1.272-19.085,3.804-27.362,4.44c-8.277,0.638-43.917-3.806-52.194-6.353c-8.276-2.544-58.579,1.27-63.673-1.913
			c-5.093-3.183-15.273,1.288-19.095,0.65c-3.819-0.636-5.738-8.918-5.738-10.829c0-1.909-19.743-17.847-26.748-27.397
			c-7.002-9.549-24.835-59.197-24.835-59.197s0.026-6.996-0.614-10.179c-0.636-3.184-7.01-10.197-5.739-14.655
			c1.276-4.456-1.264-21-3.176-24.184c-1.908-3.183-15.916-6.377-22.919-7.652c-7.004-1.272-22.287-3.806-24.834-6.353
			c-2.546-2.545,1.262-6.984,1.262-11.442c0-4.456-8.924-14.659-14.654-18.48c-5.728-3.82-10.159-3.802-12.706-4.438
			c-2.545-0.639-4.478-8.916-6.389-15.919c-1.91-7.001,1.911-52.85,0-56.669c-1.91-3.821-6.34-7.65-5.704-12.742
			c0.64-5.093,5.724-8.914,10.18-14.005c4.458-5.093,4.452-17.841,12.091-23.57c7.642-5.73,3.804-14.612,4.44-17.796
			c0.64-3.183,15.935-11.461,25.484-15.917c9.551-4.457,47.12-3.824,56.67-1.913c9.551,1.909,15.896,3.187,23.534,1.913
			c7.64-1.275,12.758-12.747,22.307-14.656c9.55-1.91,27.359-2.537,34.363-1.262c7.004,1.272,35.026,0,42.665,0
			c7.64,0,10.179,1.916,17.182,3.825c7.003,1.911,38.829-6.365,47.104-7.001c8.277-0.638,12.751-6.39,18.48-6.39
			c2.557,0,197.311,2.565,412.705,6.8c267.545,5.259,566.938,12.466,569.409,13.171c4.455,1.274,52.194-5.703,52.194-5.703
			c6.409,0.079,8.808-6.116,12.453-10.72c-6.938,0.128-14.005,0.604-18.806,1.805c-12.735,3.183-47.112,9.529-50.932,9.529
			C1335.455,54.588,355.782,31.537,349.423,31.405"/>
	</g>
	<path fill="#1A1A1A" d="M583.864,40.357c-2.545,0.636-29.197,9.539-34.291,8.265c-5.092-1.272-34.487-8.902-44.037-8.265"/>
	<path fill="#1A1A1A" d="M941.934,48.442c3.616-0.905-93.109,7.998-92.044,8.265c-5.092-1.272-46.038-8.902-55.588-8.265"/>
</g>
</svg>
