<?xml version="1.0" encoding="utf-8"?>
<!-- Generator: Adobe Illustrator 15.0.0, SVG Export Plug-In . SVG Version: 6.00 Build 0)  -->
<!DOCTYPE svg PUBLIC "-//W3C//DTD SVG 1.1//EN" "http://www.w3.org/Graphics/SVG/1.1/DTD/svg11.dtd">
<svg version="1.1" id="Layer_1" xmlns="http://www.w3.org/2000/svg" xmlns:xlink="http://www.w3.org/1999/xlink" x="0px" y="0px"
	 width="1161px" height="411px" viewBox="0 0 1161 411" enable-background="new 0 0 1161 411" xml:space="preserve">
<g>
	<g>
		<defs>
			<rect id="SVGID_1_" x="10" y="6.796" width="1216.792" height="394.766"/>
		</defs>
		<clipPath id="SVGID_2_">
			<use xlink:href="#SVGID_1_"  overflow="visible"/>
		</clipPath>
		<path clip-path="url(#SVGID_2_)" fill="#ADA793" d="M95.466,25.75C77.407,43.31,52.663,67.338,25.561,93.595v117.687l41.875,30.53
			l101.782,142.219l79.005,3.858l78.82-363.792L95.466,25.75z"/>
	</g>
	<g>
		<defs>
			<rect id="SVGID_3_" x="10" y="6.796" width="1216.792" height="394.766"/>
		</defs>
		<clipPath id="SVGID_4_">
			<use xlink:href="#SVGID_3_"  overflow="visible"/>
		</clipPath>
		<path clip-path="url(#SVGID_4_)" fill="#7F7D72" d="M1187.591,24.845l-1001.53,9.812c0,0,0.525,1.363,1.407,1.969l-8.125,0.156
			c0,0,11.009,13.781,9.905,19.844c-1.103,6.062,0,19.281,0,19.281s2.201,8.265,4.406,4.406c2.204-3.858,5.532-29.218,5.532-29.218
			l2.687-3.312c8.134,7.093,16.807,16.323,19.031,24.844c1.557,5.953-14.68,82.645-18.875,82.094
			c-4.193-0.552-24.61,9.394-23.562,14.906c1.048,5.511,2.621,87.61-4.72,91.468c-7.341,3.859-12.591-0.553-14.688-1.656
			c-2.096-1.102,4.181-10.447-1.062-17.062c-5.242-6.612-14.688-13.25-14.688-13.25s8.938,16.549,8.938,20.406
			c0,3.858-16.265,30.329-17.312,34.187c-0.711,2.623-3.723,21.877-5.969,36.5l33.219,44.5l5.062,19.312l182.781-7L1187.591,24.845z
			 M157.498,42.532l-52.251,0.781c0,0,6.234,21.042,12.47,25.719c3.487,2.615,7.666,18.596,17.905,10.75
			c-2.17-2.926-4.073-6.083-4.655-8.406c-1.56-6.236,12.476-13.275,15.594-10.157c3.119,3.119,7.812,14.813,7.812,14.813
			L157.498,42.532z"/>
	</g>
	<g>
		<defs>
			<rect id="SVGID_5_" x="10" y="6.796" width="1216.792" height="394.766"/>
		</defs>
		<clipPath id="SVGID_6_">
			<use xlink:href="#SVGID_5_"  overflow="visible"/>
		</clipPath>
		<path clip-path="url(#SVGID_6_)" fill="#58574F" d="M280.197,36.223c0,0,49.056,55.119,49.056,62.835
			c0,7.717-3.309,36.378-3.309,36.378l-12.678-14.33l-4.959,7.165c0,0,22.047,13.78,24.803,24.252
			c2.756,10.472-3.307,90.395-10.473,93.702c-7.166,3.308-10.473-11.022-10.473-11.022l-13.779-15.984
			c0,0,8.268,13.779,8.818,18.189c0.553,4.407,9.922,44.093,3.307,46.849c-6.613,2.756-11.574-12.125-11.574-12.125l-4.41,9.369
			c0,0-72.757,52.363-77.166,50.158c-4.408-2.205-18.188-14.881-18.188-14.881l-2.206,3.856c0,0,8.819,9.922,4.961,13.229
			c-3.859,3.307-31.418,4.41-31.418,4.41l-3.858-10.474l-24.252,6.613l19.844,47.402l1005.521,4.922c0,0,8.771-20.019,11.601-58.896
			c1.955-26.875-3-70.088,1.016-91.921c4.16-22.623,19.668-63.857,21.271-89.585c2.557-41.04,12.885-123.563,12.885-123.563
			l-926.621-0.228L280.197,36.223z"/>
	</g>
</g>
</svg>
