<?xml version="1.0" encoding="utf-8"?>
<!-- Generator: Adobe Illustrator 15.0.0, SVG Export Plug-In  -->
<!DOCTYPE svg PUBLIC "-//W3C//DTD SVG 1.1//EN" "http://www.w3.org/Graphics/SVG/1.1/DTD/svg11.dtd" [
	<!ENTITY ns_flows "http://ns.adobe.com/Flows/1.0/">
]>
<svg version="1.1"
	 xmlns="http://www.w3.org/2000/svg" xmlns:xlink="http://www.w3.org/1999/xlink" xmlns:a="http://ns.adobe.com/AdobeSVGViewerExtensions/3.0/"
	 x="0px" y="0px" width="933px" height="397px" viewBox="324.584 0.458 933 397"
	 overflow="visible" enable-background="new 324.584 0.458 933 397" xml:space="preserve">
<defs>
</defs>
<g>
	<defs>
		<rect id="SVGID_1_" x="0" width="1216.792" height="394.766"/>
	</defs>
	<clipPath id="SVGID_6_">
		<use xlink:href="#SVGID_1_"  overflow="visible"/>
	</clipPath>
	<g clip-path="url(#SVGID_6_)">
		<defs>
			<rect id="SVGID_5_" x="0" width="1216.792" height="394.766"/>
		</defs>
		<clipPath id="SVGID_7_">
			<use xlink:href="#SVGID_5_"  overflow="visible"/>
		</clipPath>
		<path clip-path="url(#SVGID_7_)" fill="#ACA793" d="M85.466,18.954C67.408,36.513,42.664,60.542,15.561,86.798v117.687
			l41.875,30.531l101.782,142.219l79.005,3.859l78.82-363.793L85.466,18.954z"/>
		<path clip-path="url(#SVGID_7_)" fill="#7F7D72" d="M1177.592,18.048L176.061,27.86c0,0,0.525,1.363,1.407,1.969l-8.125,0.156
			c0,0,11.009,13.781,9.905,19.844c-1.103,6.062,0,19.281,0,19.281s2.201,8.265,4.406,4.406c2.204-3.858,5.532-29.218,5.532-29.218
			l2.687-3.313c8.134,7.093,16.807,16.323,19.031,24.844c1.557,5.953-14.68,82.645-18.875,82.094
			c-4.193-0.552-24.61,9.394-23.562,14.906c1.048,5.511,2.621,87.611-4.72,91.468c-7.341,3.859-12.591-0.553-14.688-1.656
			c-2.096-1.102,4.181-10.448-1.062-17.062c-5.242-6.613-14.688-13.25-14.688-13.25s8.938,16.549,8.938,20.406
			c0,3.859-16.265,30.33-17.312,34.188c-0.711,2.623-3.723,21.876-5.969,36.5l33.219,44.5l5.062,19.312l182.781-7L1177.592,18.048z
			 M147.499,35.735l-52.251,0.781c0,0,6.234,21.042,12.47,25.719c3.487,2.615,7.666,18.596,17.905,10.75
			c-2.17-2.926-4.073-6.083-4.655-8.406c-1.56-6.236,12.476-13.275,15.594-10.157c3.119,3.119,7.812,14.813,7.812,14.813
			L147.499,35.735z"/>
		<path clip-path="url(#SVGID_7_)" fill="#57564E" d="M270.198,29.427c0,0,49.056,55.119,49.056,62.835
			c0,7.717-3.308,36.378-3.308,36.378l-12.678-14.33l-4.96,7.165c0,0,22.048,13.78,24.804,24.252
			c2.756,10.472-3.308,90.395-10.474,93.702c-7.165,3.307-10.472-11.023-10.472-11.023l-13.78-15.984c0,0,8.269,13.779,8.819,18.189
			c0.552,4.408,9.922,44.094,3.307,46.85c-6.613,2.756-11.574-12.125-11.574-12.125l-4.41,9.369c0,0-72.757,52.363-77.166,50.158
			c-4.408-2.205-18.188-14.882-18.188-14.882l-2.206,3.858c0,0,8.819,9.921,4.961,13.229c-3.859,3.307-31.418,4.409-31.418,4.409
			l-3.858-10.472l-24.252,6.613l19.844,47.402l1005.521,4.922c0,0,8.771-20.019,11.6-58.895c1.955-26.875-3-70.088,1.016-91.922
			c4.159-22.623,19.667-63.857,21.27-89.585c2.557-41.04,12.885-123.563,12.885-123.563L277.915,15.75L270.198,29.427z"/>
	</g>
	<g clip-path="url(#SVGID_6_)">
		<defs>
			<path id="SVGID_4_" d="M85.67,139.923h-0.016c0.065-0.153,0.096-0.215,0.099-0.215C85.757,139.708,85.724,139.794,85.67,139.923
				 M273.43,69.72c-0.007-0.004-0.012-0.007-0.018-0.011l0,0C273.418,69.713,273.423,69.716,273.43,69.72 M224.375,333.485
				c-0.028-0.043-0.185-0.227-0.25-0.312c0.088,0.252,0.21,0.346,0.248,0.346C224.385,333.519,224.389,333.507,224.375,333.485
				 M170.547,207.116c-0.479,0.18-0.877,0.236-1.267,0.275C169.671,207.361,170.081,207.292,170.547,207.116 M170.568,207.108
				c-0.003,0.001-0.007,0.003-0.01,0.004C170.561,207.111,170.565,207.11,170.568,207.108 M203.249,206.141
				c-0.11,0.377-0.219,0.709-0.281,0.875c-0.003,0.01,0.004,0.022,0,0.032C202.987,206.995,203.131,206.545,203.249,206.141
				 M274.467,70.672c-0.027-0.028-0.054-0.054-0.076-0.078l-0.018,0.016c0.051,0.051,0.018,0.046,0.062,0.094
				c0.533,0.58,0.83,1.035,0.844,1.063c0,0.001,0.002,0.002,0.002,0.002C275.29,71.769,275.172,71.374,274.467,70.672
				 M271.592,68.579c-0.058-0.029,0.014,0.01,0.086,0.049c0.102,0.053,0.204,0.106-0.023-0.017c0.002,0,0.003,0.001,0.005,0.001
				C271.636,68.601,271.614,68.59,271.592,68.579 M242.874,62.986c3.751,0.033,6.429,1.21,8.251,2.218
				c0.095,0.005,0.185,0.025,0.28,0.032c0.017,0,0.033,0,0.048,0c0.016,0,0.03,0,0.046,0c-0.055-0.008-0.189-0.023,0.22,0h0.093
				c0.385,0.027,0.908,0.073,1.438,0.125c0.504,0.003,1.03,0.018,1.562,0.03c0.012,0.001,0.021,0,0.032,0
				c-0.03-0.001-0.038-0.003,0.125,0c0.56,0.01,1.194-0.004,1.892-0.019c3.601-0.076,8.912-0.153,14.607,3.145v-0.032
				c0.684,0.357,0.625,0.337,0.422,0.239c0.283,0.165,0.687,0.417,1.141,0.73c0.016,0.011,0.016,0.02,0.031,0.031v-0.031
				c0.109,0.075,0.062,0.062,0.156,0.125c0.021,0.011,0.042,0.021,0.062,0.031c0.068,0.045,0.066,0.055,0.125,0.094
				c0.003,0.001,0.005,0.002,0.008,0.005c-0.002-0.002-0.005-0.003-0.008-0.005c0.003,0.002,0.006,0.003,0.008,0.005
				c0.012,0.01,0.042,0.043,0.18,0.152c0.024,0.018,0.025,0.014,0.027,0.011c0.001-0.002,0.001-0.003,0.006-0.001
				c-0.061-0.044-0.107-0.09-0.195-0.151c0.637,0.429,0.678,0.473,0.225,0.171c0.306,0.247,0.502,0.47,0.656,0.626
				c0.004,0.004,0.01,0.008,0.017,0.012c-0.274-0.292-0.041-0.137,0.64,0.644c2.237,2.563,3.684,5.628,4.781,8.875
				c5.785,7.265,8.969,15.729,10.594,22.937c0.84,3.72,1.285,7.103,1.407,9.906c0.045,1.043,0.03,1.868,0.03,2.719
				c1.809,1.308,2.492,3.681,1.656,5.75l-5.406,13.5l1.531,2.688c0.609,1.07,0.791,2.332,0.504,3.53
				c-0.621,2.607-3.239,4.217-5.847,3.595l-0.688-0.156l-0.156,0.5l4.062,2.25c1.571,0.875,2.53,2.549,2.491,4.347
				c-0.059,2.68-2.28,4.805-4.96,4.746l-2.156-0.062l7.344,7.844c0.318,0.337,0.586,0.719,0.796,1.132
				c1.21,2.392,0.253,5.313-2.14,6.523l-5.219,2.626c-0.139,4.186-0.602,19.008-0.312,23.937c0.273,4.663-0.704,12.791-1.688,21.125
				c-0.982,8.336-2.094,16.479-2.25,17.875c0.072-0.646,0.025,2.361,0.188,5.531s0.431,7.255,0.72,11.5
				c0.506,7.471,1.049,14.547,1.405,19.187c0.257,0.314,0.625,0.64,0.781,0.875c0.605,0.915,0.918,1.716,1.219,2.532
				c0.603,1.638,1.047,3.39,1.438,5.156c0.782,3.535,1.281,6.969,1.281,6.969c0.357,2.399-1.109,4.694-3.438,5.374
				c-0.096,2.774-0.205,5.487-0.25,8.314c-0.068,4.398,0.078,8.745,0.156,9.218c0.497,2.985,0.512,7.655,0.625,13.875
				c0.102,5.566,0.131,11.545,0.157,16.5c0.246,0.532,0.394,1.104,0.437,1.688l1.157,17.937c0.009,0.131,0.011,0.264,0.009,0.396
				c-0.052,2.68-2.267,4.811-4.947,4.76l-82.219-1.562c-2.076-0.039-3.897-1.396-4.53-3.375c0,0-0.844-2.543-1.095-5.688
				c-0.125-1.572-0.133-3.371,0.344-5.312c0.478-1.941,1.582-4.201,3.751-5.719c1.744-1.221,3.038-1.551,4.969-2.188
				c1.931-0.637,4.261-1.297,6.781-1.968c3.581-0.955,7.436-1.842,11.187-2.719c-0.008-0.402-0.062-0.951-0.062-1.25
				c0-2.272,1.109-3.787,1.938-4.687c0.478-0.52,0.862-0.762,1.28-1.096c-0.451-0.417-1.094-1.029-1.094-1.029
				c-1.674-1.409-2.198-3.765-1.281-5.75c0,0,0.441-0.978,0.938-2.188c0.443-1.081,0.825-2.253,0.938-2.625
				c0.022-0.238,0.069-0.578,0.062-0.906c-0.016-0.768-0.061-1.854-0.125-3.155c-0.127-2.605-0.326-6.036-0.562-9.657
				c-0.365-5.605-0.729-10.498-1.031-14.656l-1.125-0.063c-0.41-0.021-0.818-0.095-1.211-0.219
				c-2.556-0.809-3.973-3.537-3.164-6.093l2.688-8.343c-0.723-1.349-0.77-2.958-0.125-4.346l2.156-4.625l-3.656-31.468
				l-1.188-10.282l-1.156-10.062c-2.304-1.122-4.864-2.371-5.812-2.844c-1.329-0.664-4.11-2.41-6.406-3.812
				c-0.103,0.133-0.173,0.277-0.281,0.406c-1.424,1.685-3.281,2.953-5.312,3.875c-1.438,0.658-3.104,0.577-4.469-0.219l-5.062-2.999
				c-0.249,0.253-0.271,0.437-0.688,0.749c-1.665,1.249-3.016,1.363-4.188,1.469c-1.172,0.105-2.233,0.062-3.25-0.031
				c-2.032-0.187-3.809-0.555-4.843-0.812c-2.203-0.551-2.722-1.395-3.469-2.062c-0.747-0.669-1.406-1.322-1.97-1.905
				c-0.326-0.341-0.484-0.487-0.718-0.72c-0.521-0.133-0.974-0.301-1.344-0.469c-0.911-0.414-1.653-0.895-2.407-1.469
				c-0.753-0.574-1.479-1.217-2.188-2.125c-0.368-0.473-0.832-1.062-1.155-1.874l-2.5-1.063c-0.021-0.006-0.097-0.054-0.125-0.062
				c-0.273-0.088-0.599-0.177-1.282-0.407c-0.919-0.311-1.643-0.493-2.843-1.094c-1.49-0.744-2.031-1.433-2.344-1.906
				c-0.517-0.221-0.887-0.461-1.25-0.688c-0.643-0.399-1.2-0.829-1.75-1.28c-1.102-0.904-1.942-1.348-3.063-3.313
				c-0.352-0.619-0.469-1.036-0.5-1.125c-0.001-0.002,0.001-0.03,0-0.032c-0.252-0.704-0.462-1.573-0.5-2.53v-0.032
				c-0.011-0.323-0.005-0.357,0-0.125v-0.032c-0.013-0.663,0.1-1.259,0.188-1.874l-35.938-21.125
				c-1.354,1.581-3.567,2.122-5.5,1.344l-0.562-0.219c-0.207,0.22-0.414,0.405-0.75,0.843c-0.011,0.013-0.023,0.042-0.063,0.095
				c-0.561,0.744-1.164,1.703-1.812,2.874c-6.395,11.527-13.421,39.984-14.5,47.594c-0.059,0.406-0.077,0.838-0.53,1.75
				c-0.229,0.456-0.606,1.101-1.438,1.75c-0.832,0.648-2.272,1.125-3.5,1c-2.454-0.25-3.101-1.421-3.5-1.938
				c-0.398-0.516-0.547-0.856-0.688-1.155c-0.568-1.193-0.781-2.084-1.062-3.25c-0.564-2.332-1.118-4.865-0.905-7.688
				c0.108-1.455,0.306-3.069,0.562-4.907c0.507-3.66,1.317-8.177,2.343-13.062c0.013-0.059,0.018-0.098,0.032-0.156v-0.031v-0.032
				c0.509-2.429,1.098-4.967,1.718-7.531c0.011-0.042,0.021-0.082,0.031-0.125c-0.002-0.021-0.002-0.042,0-0.062v-0.032
				c0.637-2.628,1.314-5.312,2.063-8v-0.031c0.007-0.032,0.021-0.062,0.03-0.093c0.74-2.655,1.55-5.285,2.375-7.844
				c0.003-0.01-0.004-0.022,0-0.031h0.031c0.004-0.014-0.006-0.018,0-0.032c0.002-0.01-0.003-0.021,0-0.031
				c1.476-4.568,3.118-8.858,4.876-12.781l-0.125-0.5l-0.97-0.562c-1.746-1.031-2.667-3.037-2.312-5.032
				c0.197-1.111,0.369-2.516,0.75-4.125c0.055-0.234,0.146-0.612,0.296-1.101c-0.132,0.425-0.138,0.367,0.047-0.211v-0.031
				c0.1-0.308,0.229-0.695,0.405-1.125c0.009-0.017,0.013-0.008,0.018,0c0.004,0.007,0.009,0.014,0.014,0
				c0.017-0.036,0.009-0.028,0.003-0.021s-0.013,0.014-0.003-0.011c0.03-0.068,0.057-0.131,0.079-0.187h0.015
				c0.056-0.125,0.105-0.299,0.22-0.531c0.032-0.066,0.11-0.203,0.218-0.407c1.37-2.562,4.067-4.927,7.562-6.124
				c1.123-0.38,2.347-0.336,3.438,0.124l0.219-0.343c0.664-1.092,1.729-1.877,2.968-2.188c0.252-0.442,0.452-0.877,0.75-1.344
				c1.27-1.975,2.998-4.298,5.063-6.875c0.486-0.606,0.912-1.07,1.187-1.406c7.406-9.045,17.51-20.128,23.689-24.719
				c0.696-0.517,1.36-0.987,2.25-1.437c0.874-0.442,1.907-1.083,4.093-0.656c3.009,0.586,5.008,2.121,6.594,4.156
				c0.794,1.018,1.518,2.209,1.75,4.031c0.233,1.822-0.742,4.593-2.562,5.875c0.251-0.177-2.107,2.1-4.438,4.938
				c-2.331,2.837-5.165,6.509-7.969,10.375c-5.003,6.896-9.628,14.232-11.594,18.187l0.187,0.344
				c0.601,1.122,0.734,2.435,0.375,3.656c5.332,2.992,10.829,6.087,15.314,8.594c5.727,3.202,10.372,5.749,10.937,6.031
				c2.874,1.438,4.644,3.54,5.938,5.094c1.294,1.554,2.878,2.521,1.281,1.812c0.743,0.331,0.789,0.396,1.25,0.656
				c0.429,0.243,0.974,0.592,1.625,0.969c0.258-0.238,0.54-0.448,0.844-0.625c0,0,2.323-1.817,6.187-2.156
				c0.369-0.032,1.012-0.107,1.907,0.031c1.611,0.248,3.221,1.507,3.906,2.625c0.685,1.118,0.82,2.012,0.906,2.75
				c0.169,1.477-0.02,2.546-0.188,3.594c-0.063,0.389-0.146,0.672-0.22,1.031c0.288,0.228,0.576,0.438,0.876,0.656
				c0.688,0.504,1.312,1.073,1.937,1.657c0.271,0.161,0.549,0.312,0.812,0.469c0.066-0.147,0.081-0.256,0.157-0.407
				c1.309-2.617,3.855-3.202,5.25-3.312c4.135-0.326,6.534,1.014,7.905,1.562c2.001,0.801,1.995,1.338,2.375,1.782
				c0.381,0.443,0.659,0.87,0.97,1.312c0.618,0.885,1.261,1.874,1.875,2.844c0.612,0.97,1.214,1.911,1.655,2.562
				c0.03,0.046,0.034,0.051,0.062,0.094c0.607,0.206,1.43,0.458,2.438,0.781c2.116,0.679,4.922,1.56,7.845,2.469
				c1.293,0.402,1.906,0.604,3.188,1c-0.222-0.297-0.407-0.619-0.555-0.959c-1.066-2.46,0.062-5.318,2.522-6.385l1.906-0.844
				l-0.781-5.468l-1.469,0.125c-0.553,0.051-1.111,0.008-1.649-0.129c-2.6-0.662-4.167-3.305-3.507-5.903
				c0,0,0.792-3.077,1.375-7.031c0.584-3.953,0.803-8.84,0.281-11.093c-0.874-3.786-2.729-12.168-4.375-19.625
				c-17.757,3.975-33.562,8.843-33.562,8.843c-0.797,0.248-1.646,0.286-2.463,0.111c-2.62-0.565-4.287-3.146-3.725-5.767
				l0.844-3.875c0.32-1.483,1.313-2.732,2.688-3.375l4.437-2.063c-0.768-1.012-1.458-2.159-1.905-3.437
				c-1.181-3.37-1.75-7.876-1.75-14.875c0-9.852,2.135-15.433,4.969-18.718c0.163-0.576,0.323-1.193,0.469-1.688
				c0.596-2.005,2.409-3.403,4.5-3.469l9.093-0.281c1.982-0.06,3.801,1.091,4.595,2.906l0.375,0.875
				c0.964,0.475,1.969,0.971,4.093,2.094c1.475,0.779,3.012,1.606,4.345,2.406c0.794,0.478,1.459,0.853,2.156,1.375
				c4.514-10.761,14.326-22.247,32.844-26.375c1.367-1.208,2.837-2.096,4.343-2.593l-0.031-0.063
				c0.138-0.058,0.27-0.072,0.406-0.126c0.073-0.021,0.146-0.073,0.219-0.093v0.031c1.853-0.683,3.68-1,5.351-1
				C242.795,62.985,242.834,62.985,242.874,62.986"/>
		</defs>
		<clipPath id="SVGID_8_">
			<use xlink:href="#SVGID_4_"  overflow="visible"/>
		</clipPath>
		
			<linearGradient id="SVGID_9_" gradientUnits="userSpaceOnUse" x1="-9.7144" y1="395.7954" x2="-8.7144" y2="395.7954" gradientTransform="matrix(35.3865 1.453 -1.453 35.3865 1148.3651 -13774.7305)">
			<stop  offset="0" style="stop-color:#F4EED7"/>
			<stop  offset="1" style="stop-color:#24221C"/>
		</linearGradient>
		<polygon clip-path="url(#SVGID_8_)" fill="url(#SVGID_9_)" points="60.722,366.711 293.901,376.286 306.744,63.497 73.566,53.923 
					"/>
	</g>
	<g clip-path="url(#SVGID_6_)">
		<defs>
			<rect id="SVGID_2_" x="0" width="1216.792" height="394.766"/>
		</defs>
		<clipPath id="SVGID_10_">
			<use xlink:href="#SVGID_2_"  overflow="visible"/>
		</clipPath>
		<path clip-path="url(#SVGID_10_)" fill="#28170B" d="M234.788,340.119c0,0-31.57,6.626-35.467,9.354
			c-3.898,2.729-1.169,11.303-1.169,11.303l82.235,1.56l-1.168-17.929L234.788,340.119z"/>
		<path clip-path="url(#SVGID_10_)" fill="#373E48" d="M224.654,282.046c0,0,2.729,36.636,2.339,38.585
			c-0.39,1.949-2.339,6.236-2.339,6.236s4.677,3.896,4.288,5.456c-0.391,1.559-4.678,3.119-4.678,5.066c0,1.948,0,5.456,1.949,5.456
			c1.948,0,52.615,8.965,52.615,8.965s0-34.298-0.779-38.975c-0.779-4.678,0.39-28.451,0.39-28.451L224.654,282.046z"/>
		<path clip-path="url(#SVGID_10_)" fill="#E9C6AF" d="M201.851,115.963c0,0,6.062,27.559,7.716,34.725
			c1.653,7.165-1.653,20.394-1.653,20.394l6.063-0.552l3.307,23.15l54.016-8.819l4.961-67.795L201.851,115.963z"/>
		<path clip-path="url(#SVGID_10_)" fill="#845B40" d="M201.843,115.954c0,0,3.785,17.205,6.155,27.781l4.313-0.219l2.5,10.469
			l5.221-7.707c4.204-6.204,13.244-10.853,17.091-6.324c4.137,4.869,4.057,8.057,2.475,11.295c3.308,0.828,11.255,0.13,13.5-2.761
			c1.018-1.31,2.486-6.347,2.486-6.347c5.17-3.792,4.424-0.28,5.258,3.875l-2.219,7.688h-8.281l6.063,17.938l16.031-2.25
			l3.812-52.313L201.843,115.954z"/>
		<polygon clip-path="url(#SVGID_10_)" fill="#AC9D93" points="271.424,160.056 210.623,186.558 215.69,191.625 224.654,268.795 
			267.073,279.27 		"/>
		<path clip-path="url(#SVGID_10_)" fill="#3F3630" d="M276.874,157.048l-4.594,1.969l-0.843,1.031l-11.5,5l1.437,4.094
			l-41.875,19.562l11.281,0.563l-4.662,13.517l-1.395,17.064l-6.17-1.925l2.289,17.999l6.625,1.312l-4.875,13.688l2.062,17.875
			l-2.719,5.844l2.312,3.5l53.031,1.969c0,0-3.14-39.773-2.75-43.281c0.391-3.508,4.297-31.561,3.906-38.188
			c-0.391-6.625,0.406-27.28,0.406-27.28l7.781-3.907L276.874,157.048z"/>
		<path clip-path="url(#SVGID_10_)" fill="#241F1C" d="M222.706,276.979l-3.119,9.744l61.971,3.118c0,0-1.949-13.251-3.896-13.251
			C275.711,276.59,222.706,276.979,222.706,276.979"/>
		<path clip-path="url(#SVGID_10_)" fill="#917C6F" d="M95.257,137.45c0,0,45.017,25.333,48.523,27.087
			c3.508,1.754,5.653,6.236,7.407,7.016c1.753,0.779,47.937,28.451,47.937,28.451c0.625,4.439-1.209,7.513-5.261,9.354
			L88.828,147.583C89.535,143.631,89.555,139.404,95.257,137.45"/>
		<path clip-path="url(#SVGID_10_)" fill="#483E37" d="M95.999,137.892l-3.095,4.625l-2.5-1.25c-1.017,1.91-1.174,4.15-1.562,6.313
			l105.032,61.78c4.052-1.84,5.874-4.904,5.25-9.344c0,0-18.005-10.789-32.031-19.125l-5.962,5.667l-57.677-33.125l4.013-9.136
			C103.021,141.8,96.363,138.097,95.999,137.892"/>
		<path clip-path="url(#SVGID_10_)" fill="#E9C6AF" d="M163.5,170.798c-1.808,0.158-4.219,1.532-4.219,1.532
			s-0.415,5.243,0.688,5.656c1.102,0.413,3.862,1.09,3.999,0.125c0.138-0.965,2.042-7.037,0.25-7.313
			C163.995,170.764,163.757,170.775,163.5,170.798 M156.875,175.486c-3.943,0.201-9.561,10.313-7.688,13.594
			c5.495,0.966,10.271,3.478,15.031,8.687c0,0,6.907-11.929,6.907-13.031c0-1.103-4.01-4.831-5.25-4.969s-6.469-0.281-6.469-0.281
			s-0.413-3.162-1.375-3.719C157.668,175.558,157.282,175.465,156.875,175.486 M178.781,179.892
			c-0.618,0.049-1.088,0.235-1.281,0.625c-0.781,1.559-0.969,4.469-0.969,4.469s-11.713,12.667-11.906,14.031
			c5.375-0.478,12.743,1.279,18.125,8.405c1.559-1.168,6.048-9.564,6.437-10.344c0.391-0.779,18.115,10.512,20.845,11.875
			l7.219-11.093c-1.949-0.78-25.934-7.978-26.906-8.563c-0.975-0.584-4.871-7.798-5.844-8.187
			C183.767,180.819,180.634,179.746,178.781,179.892"/>
		<path clip-path="url(#SVGID_10_)" fill="#666666" d="M101.491,135.156l-9.519,15.707l0.616,2.273
			c-7.756,16.331-13.569,44.598-14.338,54.836c-0.231,3.062,1.66,10.621,1.963,8.491c1.59-11.224,12.41-54.928,21.652-56.081
			l2.666,1.084l10.495-17.275l-1.409-2.626c3.627-9.068,22.558-34.513,26.711-37.441c1.815-1.28-1.138-4.812-3.921-5.355
			c-3.588-0.699-34.196,33.532-32.696,36.32L101.491,135.156z"/>
		<polygon clip-path="url(#SVGID_10_)" points="239.882,122.302 240.985,129.192 245.394,126.987 247.875,133.05 260.276,136.633 
			274.882,151.239 285.079,151.514 277.638,147.381 279.567,140.766 277.087,138.01 285.356,139.94 279.292,129.192 
			247.598,119.822 		"/>
		<path clip-path="url(#SVGID_10_)" fill="#504416" d="M242.914,120.648c8.44,12.218,18.405,24.436,31.97,36.654l5.786-7.441
			c-11.05-7.283-20.702-18.058-30.315-28.938L242.914,120.648z"/>
		<path clip-path="url(#SVGID_10_)" fill="#C8AB37" d="M247.874,69.954c-51.812,0.551-47.405,46.563-47.405,46.563l-34.157,15.968
			l-0.843,3.875c0,0,46.394-14.419,70.28-14.062c16.311,0.243,47.688,11.031,47.688,11.031l5.5-13.781l-2.47-1.375
			c1.425-3.204-0.031-22.555-10.969-35.75c-0.979-3.166-2.336-5.941-4.188-8.063c-3.311-3.795-14.01-4.149-18.312-4.156
			C251.365,70.018,249.659,69.935,247.874,69.954"/>
		<path clip-path="url(#SVGID_10_)" fill="#DECD87" d="M243.741,69.388c0,0-5.788-3.858-10.473,3.858
			c-1.668,2.747-12.264,42.028-12.264,42.028l4.409-1.791C229.258,106.734,238.473,67.131,243.741,69.388"/>
		<path clip-path="url(#SVGID_10_)" fill="#685E35" d="M242.842,67.829c-1.459-0.013-3.041,0.242-4.625,1
			c-4.017,1.921-13.5,43.969-13.5,43.969c1.264-0.007-22.588,8.136-22.588,8.136c-3.895,1.269-2.6,6.426-2.6,6.426
			c12.683-2.834,26.359-5.209,36.219-5.062c16.311,0.243,47.688,11.031,47.688,11.031l5.5-13.781l-2.47-1.375
			c1.424-3.204-0.031-22.555-10.969-35.75c-0.98-3.166-2.336-5.941-4.187-8.063c-3.312-3.795-14.011-4.149-18.313-4.156
			c-1.002-0.114-2.035-0.15-3.094-0.187C248.708,69.262,246.071,67.858,242.842,67.829"/>
		<path clip-path="url(#SVGID_10_)" d="M213.425,128.64l3.583,10.748l-1.654,3.032l8.545-4.961l-2.757-0.551
			c0,0-1.401-5.226-3.858-6.89C216.067,129.194,213.425,128.64,213.425,128.64"/>
		<path clip-path="url(#SVGID_10_)" fill="#1A1A1A" d="M136.406,98.767c-3.588-0.699-34.188,33.524-32.688,36.313l-2.219,0.062
			l-9.531,15.719l0.625,2.281c-7.754,16.331-13.575,44.605-14.344,54.843c0,0,1.81-14.807,11.942-38.971l5.088-1.809
			c2.193-3.952,4.438-6.544,6.595-6.813l2.655,1.063l1.845-3.032c0,0-12.687-6.169-11.125-8.508c0,0,9.985-14.368,16.379-22.583
			c7.828-10.061,25.809-28.221,25.809-28.221C137.092,98.959,136.754,98.834,136.406,98.767"/>
		<g opacity="0.5" clip-path="url(#SVGID_10_)" enable-background="new    ">
			<g>
				<defs>
					<rect id="SVGID_3_" x="23.267" y="33.836" width="153.504" height="214.962"/>
				</defs>
				<clipPath id="SVGID_11_">
					<use xlink:href="#SVGID_3_"  overflow="visible"/>
				</clipPath>
				<polygon clip-path="url(#SVGID_11_)" fill="#F4EED7" points="118.621,33.836 176.496,93.916 176.771,122.853 73.976,248.798 
					23.267,206.358 51.377,34.387 				"/>
			</g>
		</g>
		<path clip-path="url(#SVGID_10_)" fill="#262626" d="M140.468,3.704C108.324,5.856,51.253,16.765,45.311,20.61
			C35.942,26.673,1.757,73.533,0.655,77.392c-1.102,3.858-1.088,34.149,2.218,42.968c3.31,8.819,9.356,18.216,9.907,22.625
			c0.552,4.41-9.916,58.955-10.469,62.812c-0.345,2.416,1.438,10.814,2.844,16.969c22.128,11.35,62.851,69.098,66.626,72.874
			c7.717,7.716,16.563,59.378,35.254,71.115c9.522,5.979,26.479,19.296,42.463,19.296c2.451,0,11.379,8.719,16.564,8.715
			l990.422-0.123c9.37-0.551,17.47-28.363,4.219-28.363c0,0-835.946-6.691-850.829-7.795c-14.882-1.102-16.521,3.293-23.687,3.844
			c-7.166,0.552-38.023-3.295-45.188-5.5c-7.164-2.204-50.716,1.1-55.125-1.656s-13.223,1.115-16.53,0.562
			c-3.309-0.551-4.97-7.721-4.97-9.375c0-1.652-17.093-15.45-23.155-23.719c-6.063-8.268-21.502-51.25-21.502-51.25
			s0.022-6.057-0.53-8.812c-0.551-2.756-6.071-8.828-4.97-12.688c1.104-3.857-1.096-18.182-2.75-20.938
			c-1.651-2.756-13.778-5.521-19.844-6.625c-6.062-1.102-19.295-3.295-21.5-5.5c-2.203-2.204,1.094-6.047,1.094-9.906
			c0-3.857-7.727-12.692-12.687-15.999c-4.959-3.307-8.795-3.293-11-3.844c-2.204-0.551-3.877-7.718-5.532-13.781
			c-1.651-6.063,1.655-45.756,0-49.063c-1.651-3.307-5.487-6.621-4.937-11.031c0.553-4.409,4.955-7.715,8.812-12.125
			c3.86-4.409,3.856-15.445,10.469-20.406c6.615-4.961,3.294-12.651,3.845-15.406c0.553-2.756,13.795-9.923,22.062-13.782
			c8.271-3.858,40.795-3.309,49.064-1.656c8.267,1.654,13.76,2.759,20.375,1.656c6.613-1.102,11.044-11.033,19.312-12.687
			c8.269-1.654,23.688-2.197,29.75-1.094c6.064,1.103,30.323,0,36.938,0c6.614,0,8.812,1.659,14.875,3.313
			c6.063,1.653,33.614-5.512,40.78-6.063c7.166-0.551,11.039-5.531,16-5.531c5.061,0,846.044,16.082,850.27,17.289
			c3.857,1.103,45.188-4.937,45.188-4.937l2.239-1.245c15.591-4.677,10.442-25.766-1.133-25.215
			C1170.204-0.249,237.459-2.79,140.468,3.704"/>
		<path clip-path="url(#SVGID_10_)" d="M115.904,204.079c-3.059,0.113-5.778,2.08-7.469,2.563c-1.927,0.551-4.151,0.278-5.531,1.655
			c-1.377,1.379-1.655,3.281-1.655,3.281s1.662,3.043,4.968,3.594c3.309,0.553,11.288,0.268,11.562-1.938
			c0.277-2.204,3.054-8.542-0.53-9.094C116.8,204.073,116.341,204.063,115.904,204.079"/>
		<path clip-path="url(#SVGID_10_)" d="M135.999,212.704c-2.479,0-8.562,3.313-8.562,3.313c-0.551,3.583,1.38,6.872,4.688,8.25
			c3.309,1.378,9.381,1.65,9.656-1.657C142.056,219.303,138.478,212.704,135.999,212.704"/>
		<path clip-path="url(#SVGID_10_)" fill="#FFFFFF" d="M176.771,90.057c0,0-6.89,0.272-6.89,17.638
			c0,21.774,6.615,16.26,6.615,16.26L176.771,90.057z"/>
		<path clip-path="url(#SVGID_10_)" fill="#483E37" d="M175.119,88.679c-4.197,14.316-3.393,29.852-0.276,37.205
			c1.836,0.737,5.425-0.281,10.197-2.48l1.653-2.205c0,0,8.819-3.858,10.197-6.063c1.377-2.205,1.928-15.709,0.551-17.362
			c-1.379-1.654-12.127-6.89-12.127-6.89l-1.101-2.481L175.119,88.679z"/>
		<path clip-path="url(#SVGID_10_)" fill="#845B40" d="M153.28,177.736c-2.956,3.217-5.427,9.006-4.093,11.343
			c0.549,0.965,3.16,3.175,4.125,3.313c0.963,0.138,1.391,1.524,2.218,1.938c0.827,0.413,3.875,1.375,3.875,1.375l4.813,2.062
			c0,0,3.965-6.901,5.875-10.687c-2.906-1.068-9.69-3.662-10.125-4.969c-0.553-1.654-3.322-0.017-5.25-0.844
			C153.297,180.659,153.221,178.724,153.28,177.736 M176.999,184.017c-0.121,0.008-0.256,0.045-0.375,0.062
			c-0.061,0.511-0.094,0.907-0.094,0.907s-11.712,12.667-11.906,14.031c-0.193,1.364,3.501,3.921,4.281,3.53
			c0.78-0.389,4.098,4.268,5.656,4.656c1.56,0.391,6.628,1.389,8.188,0.219c1.561-1.168,6.049-9.564,6.438-10.343
			c0.389-0.78,18.115,10.511,20.843,11.874c2.729,1.365,13.27,6.82,15.219,6.625c1.949-0.194,7.188-2.125,7.188-2.125l-3.313-9.562
			c0,0-9.642-5.097-11.75-5.969c-7.403-1.65-30.751-6.924-31.219-8.094c-0.552-1.377-5.255-5.505-8.562-5.781
			C177.387,184.031,177.201,184.003,176.999,184.017"/>
		<path clip-path="url(#SVGID_10_)" fill="#AC9D93" d="M254.081,182.855c0,0-9.744,7.99-13.252,9.744s-4.678,4.677-4.678,4.677
			l0.391,3.12l-6.82-0.587c0,0,5.812,12.297,3.574,18.01c-2.329-1.665-4.971-3.714-4.885-6.455
			c0.135-4.377-4.113-11.255-3.724-12.034c0.39-0.78,5.423-1.274,5.423-1.274s0.195-2.338,0.975-2.923s20.656-12.471,20.656-12.471
			l-3.703-0.39l6.043-1.364V182.855z"/>
		<path clip-path="url(#SVGID_10_)" fill="#27221E" d="M231.864,224.948c0,0,4.873-1.363,5.263-2.533
			c0.389-1.169,0-11.691,1.362-11.691c1.365,0,4.679,6.625,4.679,6.625s15.979-7.6,16.563-9.354
			c0.586-1.754,4.872-7.795,4.872-7.795l-2.339,7.404l3.703-0.194c0,0-20.072,13.446-21.241,13.446c-1.17,0-5.457-1.754-5.457-1.754
			l-0.974,6.236l-7.405,3.508L231.864,224.948z"/>
		<path clip-path="url(#SVGID_10_)" fill="#D3BC5F" d="M254.717,70.235c3.023,0.959,8.975,0.736,13.818,4.673
			c5.067,4.119,5.236,23.145,5.236,23.145c1.083-13.436-0.042-22.25-3.398-24.537C264.2,69.311,259.223,70.338,254.717,70.235"/>
		<path clip-path="url(#SVGID_10_)" fill="#1A1A1A" d="M298.186,22.235c-0.174-0.004-0.334,0.014-0.437,0.031
			c-3.308,0.552-4.39,7.168-6.595,7.719c-2.204,0.551-35.278,8.259-39.688,7.156c-4.408-1.102-19.857-7.707-28.125-7.156
			c-8.268,0.551-56.781,3.313-56.781,3.313s-9.371,14.312-13.78,14.312s-45.171-6.054-47.376-7.156
			c-2.203-1.103-3.875,3.843-3.875,3.843s-26.994,3.855-29.75,4.407c-2.756,0.551-17.647,10.483-18.75,12.687
			c-1.103,2.205,3.312,12.125,3.312,12.125S38.155,85.647,38.155,88.955c0,3.307-7.185,27.019-5.531,32.531
			c1.654,5.512,8.271,14.86,7.718,18.719c-0.551,3.858-4.938,38.599-6.593,41.906c-1.653,3.307-2.219,15.437-2.219,15.437
			s15.974-6.633,19.28-5.531c3.31,1.103,18.748,11.6,17.095,14.906c-1.653,3.308-12.672,13.768-10.47,17.625
			c2.205,3.859,12.673,2.197,14.875,1.094c2.205-1.102,34.73,0.568,35.281,3.875c0.553,3.308-2.207,15.424-1.656,19.281
			c0.554,3.859,11.031,12.131,11.031,15.438c0,3.308-2.746,16.518-1.093,20.375c1.654,3.859,22.035,41.369,23.688,44.125
			c1.653,2.756,19.281,10.457,19.281,15.969s3.321,25.344,8.282,25.344c4.959,0,17.09-7.719,21.499-7.719
			c4.41,0,48.495-2.746,51.25-1.094c2.756,1.654,30.332,12.697,35.844,11.594c5.512-1.102,24.809-8.844,29.219-8.844
			s31.778-1.316,34.535,1.439c2.756,2.756,804.319,8.812,809.28,8.812c2.899,0,11.179-2.184,17.781-4.062
			c0,0,0.017-7.402-8.948-6.623c0,0-832.829-3.963-847.71-5.066c-14.883-1.102-16.522,3.292-23.688,3.844s-38.021-3.295-45.188-5.5
			c-7.165-2.204-50.715,1.1-55.125-1.656c-4.409-2.756-13.223,1.114-16.531,0.562c-3.307-0.551-4.968-7.721-4.968-9.375
			c0-1.652-17.093-15.451-23.157-23.719c-6.062-8.268-21.501-51.25-21.501-51.25s0.022-6.057-0.531-8.812
			c-0.551-2.756-6.069-8.828-4.969-12.688c1.104-3.857-1.095-18.182-2.75-20.938c-1.651-2.756-13.779-5.521-19.843-6.625
			c-6.063-1.102-19.295-3.295-21.5-5.5c-2.204-2.204,1.093-6.047,1.093-9.906c0-3.857-7.726-12.692-12.687-16
			c-4.959-3.307-8.795-3.292-11-3.843c-2.203-0.552-3.877-7.719-5.531-13.782c-1.653-6.062,1.654-45.755,0-49.062
			c-1.653-3.307-5.489-6.622-4.938-11.031c0.554-4.409,4.955-7.716,8.813-12.125c3.859-4.409,3.854-15.446,10.468-20.406
			c6.616-4.961,3.293-12.651,3.844-15.407c0.554-2.756,13.796-9.923,22.063-13.781c8.269-3.858,40.794-3.31,49.062-1.656
			c8.269,1.653,13.762,2.759,20.375,1.656c6.614-1.103,11.045-11.034,19.312-12.688c8.268-1.653,23.687-2.196,29.75-1.093
			c6.063,1.102,30.324,0,36.938,0c6.614,0,8.812,1.659,14.875,3.312c6.063,1.654,33.616-5.511,40.781-6.062
			c7.165-0.552,11.039-5.532,16-5.532c2.213,0,170.821,2.221,357.301,5.887c231.629,4.553,490.83,10.793,492.969,11.403
			c3.857,1.103,45.187-4.937,45.187-4.937c5.55,0.068,7.625-5.296,10.782-9.282c-6.006,0.111-12.126,0.524-16.282,1.563
			c-11.024,2.756-40.786,8.25-44.093,8.25C1151.848,42.306,303.692,22.35,298.186,22.235"/>
		<path clip-path="url(#SVGID_10_)" fill="#1A1A1A" d="M481.155,29.985c-2.204,0.551-25.278,8.259-29.688,7.156
			c-4.408-1.102-29.857-7.707-38.125-7.156"/>
		<path clip-path="url(#SVGID_10_)" fill="#1A1A1A" d="M791.155,36.985c3.131-0.783-80.61,6.925-79.688,7.156
			c-4.408-1.102-39.857-7.707-48.125-7.156"/>
	</g>
</g>
</svg>
