<?xml version="1.0" encoding="utf-8"?>
<!-- Generator: Adobe Illustrator 15.0.0, SVG Export Plug-In  -->
<!DOCTYPE svg PUBLIC "-//W3C//DTD SVG 1.1//EN" "http://www.w3.org/Graphics/SVG/1.1/DTD/svg11.dtd" [
	<!ENTITY ns_flows "http://ns.adobe.com/Flows/1.0/">
]>
<svg version="1.1"
	 xmlns="http://www.w3.org/2000/svg" xmlns:xlink="http://www.w3.org/1999/xlink" xmlns:a="http://ns.adobe.com/AdobeSVGViewerExtensions/3.0/"
	 x="0px" y="0px" width="1152px" height="202px" viewBox="-12.501 -41.95 1152 202"
	 overflow="visible" enable-background="new -12.501 -41.95 1152 202" xml:space="preserve">
<defs>
</defs>
<path fill="#44403D" d="M519.234,14.176l-82.871,106.983c0,0-0.069,13.302,10.56,9.73l80.054-109.293c0,0-0.188-5.047-3.256-6.951
	C522.631,13.967,521.176,13.688,519.234,14.176z"/>
<path fill="#44403D" d="M472.007,0.067c0,0,59.577-1.279,74.747,67.45c0,0-8.762-16.896-27.663-32.598l-5.769,8.204l-10.825-11.429
	l5.144-6.244C507.641,25.451,495,11.269,472.007,0.067z"/>
<path fill="#44403D" d="M107.21,11.381l50.939,119.584c0,0,7.705,4.428,7.058-7.583L112.553,5.915c0,0-2.953-1.462-4.469,1.045
	C107.546,7.848,107.188,9.241,107.21,11.381z"/>
<path fill="#44403D" d="M92.7,54.935c0,0,7.242-61.191,49.133-54.149c0,0-10.973,3.403-22.612,17.539l3.985,8.572l-8.08,7.298
	l-2.931-7.292C112.196,26.902,102.278,35.15,92.7,54.935z"/>
<path fill="#44403D" d="M45.218,13.827L0,112.675c0,0,2.382,10.416,10.041,5.676L52.632,18.214c0,0-1.071-3.913-3.82-4.84
	C47.835,13.042,46.647,13.09,45.218,13.827z"/>
<path fill="#44403D" d="M5.698,11.443c0,0,46.36-11.912,70.812,39.062c0,0-9.947-11.609-27.605-20.427l-3.009,7.473l-10.559-6.955
	l2.879-5.826C38.216,24.77,25.732,15.992,5.698,11.443z"/>
<path fill="#44403D" d="M288.698,7.848l35.88,105.315c0,0,9.096,6.072,11.459-2.839L297.296,5.896c0,0-3.548-2.157-6.244-0.914
	C290.093,5.423,289.242,6.295,288.698,7.848z"/>
<path fill="#44403D" d="M257.629,33.865c0,0,26.103-41.46,80.135-20.744c0,0-15.562-1.64-34.896,4.221l3.017,7.673l-12.745,2.253
	l-1.955-6.357C291.185,20.91,275.728,23.161,257.629,33.865z"/>
<path fill="#44403D" d="M409.125,16.793l-36.948,81.071c0,0,1.964,8.535,8.236,4.642l34.794-82.126c0,0-0.883-3.206-3.136-3.963
	C411.27,16.146,410.296,16.188,409.125,16.793z"/>
<path fill="#44403D" d="M376.731,14.885c0,0,37.984-9.816,58.085,31.936c0,0-8.167-9.506-22.649-16.711l-2.458,6.127l-8.664-5.688
	l2.354-4.777C403.399,25.771,393.157,18.591,376.731,14.885z"/>
<path fill="#44403D" d="M180.798,19.229l72.47,118.227c0,0,10.664,3.22,9.514-9.548L188.003,12.297c0,0-4.08-0.982-6.104,2.01
	C181.179,15.37,180.72,16.937,180.798,19.229z"/>
<path fill="#44403D" d="M161.848,68.876c0,0,8.596-67.135,66.2-67.921c0,0-14.974,5.839-30.626,23.334l5.652,8.407l-10.92,9.447
	l-4.18-7.245C187.973,34.898,174.55,45.728,161.848,68.876z"/>
<path fill="#44403D" d="M606.778,14.11l82.783,106.983c0,0,0.069,13.302-10.548,9.73L599.045,21.531c0,0,0.187-5.047,3.252-6.951
	C603.386,13.901,604.839,13.622,606.778,14.11z"/>
<path fill="#44403D" d="M653.956,0.002c0,0-59.514-1.279-74.668,67.45c0,0,8.752-16.896,27.635-32.598l5.762,8.204l10.813-11.429
	l-5.139-6.244C618.359,25.386,630.987,11.203,653.956,0.002z"/>
<path fill="#44403D" d="M1018.365,11.315l-50.884,119.584c0,0-7.697,4.428-7.051-7.583L1013.029,5.85c0,0,2.948-1.462,4.463,1.045
	C1018.031,7.782,1018.387,9.176,1018.365,11.315z"/>
<path fill="#44403D" d="M1032.861,54.869c0,0-7.234-61.191-49.082-54.149c0,0,10.962,3.403,22.588,17.539l-3.98,8.572l8.07,7.298
	l2.928-7.292C1013.385,26.837,1023.295,35.085,1032.861,54.869z"/>
<path fill="#44403D" d="M1080.293,13.762l45.169,98.848c0,0-2.378,10.416-10.028,5.676l-42.547-100.137c0,0,1.07-3.913,3.815-4.84
	C1077.679,12.977,1078.865,13.024,1080.293,13.762z"/>
<path fill="#44403D" d="M1119.771,11.378c0,0-46.311-11.912-70.737,39.062c0,0,9.937-11.609,27.576-20.427l3.005,7.473l10.548-6.955
	l-2.876-5.826C1087.287,24.704,1099.758,15.927,1119.771,11.378z"/>
<path fill="#44403D" d="M837.07,7.782l-35.843,105.315c0,0-9.086,6.072-11.446-2.839l38.7-104.428c0,0,3.544-2.157,6.238-0.914
	C835.677,5.357,836.526,6.229,837.07,7.782z"/>
<path fill="#44403D" d="M868.107,33.8c0,0-26.076-41.46-80.051-20.744c0,0,15.547-1.64,34.858,4.221l-3.012,7.673l12.729,2.253
	l1.954-6.357C834.587,20.845,850.026,23.096,868.107,33.8z"/>
<path fill="#44403D" d="M716.771,16.728l36.907,81.071c0,0-1.961,8.535-8.227,4.642l-34.758-82.126c0,0,0.883-3.206,3.133-3.963
	C714.629,16.081,715.602,16.122,716.771,16.728z"/>
<path fill="#44403D" d="M749.131,14.819c0,0-37.944-9.816-58.024,31.936c0,0,8.159-9.506,22.626-16.711l2.456,6.127l8.654-5.688
	l-2.352-4.777C722.491,25.705,732.722,18.525,749.131,14.819z"/>
<path fill="#44403D" d="M944.856,19.164l-72.393,118.227c0,0-10.652,3.22-9.504-9.548l74.699-115.611c0,0,4.075-0.982,6.097,2.01
	C944.476,15.305,944.935,16.871,944.856,19.164z"/>
<path fill="#44403D" d="M963.785,68.811c0,0-8.586-67.135-66.129-67.921c0,0,14.958,5.839,30.594,23.334l-5.646,8.407l10.91,9.447
	l4.175-7.245C937.688,34.833,951.099,45.662,963.785,68.811z"/>
</svg>
